<svg width="48" height="48" viewBox="0 0 48 48"  xmlns="http://www.w3.org/2000/svg">
<path d="M28.9091 22.3668C29.8128 22.3668 30.5455 23.0995 30.5455 24.0032V35.4545C30.5455 37.1905 29.8554 38.8549 28.6278 40.0824C27.4003 41.3099 25.736 42 24 42C22.264 42 20.5997 41.3099 19.3722 40.0824C18.1446 38.8549 17.4545 37.1905 17.4545 35.4545V33.7942C17.4545 32.8905 18.1872 32.1578 19.0909 32.1578C19.9946 32.1578 20.7273 32.8905 20.7273 33.7942V35.4545C20.7273 36.3225 21.0723 37.1547 21.6861 37.7685C22.2998 38.3822 23.132 38.7273 24 38.7273C24.868 38.7273 25.7002 38.3822 26.3139 37.7685C26.9277 37.1547 27.2727 36.3225 27.2727 35.4545V24.0032C27.2727 23.0995 28.0054 22.3668 28.9091 22.3668Z" />
<path d="M14.1722 17.4545C15.076 17.4545 15.8086 18.1872 15.8086 19.0909C15.8086 19.9946 15.076 20.7273 14.1722 20.7273H12.5327C10.737 20.7273 9.27273 22.1884 9.27273 24C9.27273 25.8116 10.737 27.2727 12.5327 27.2727H24C24.9037 27.2727 25.6364 28.0054 25.6364 28.9091C25.6364 29.8128 24.9037 30.5455 24 30.5455H12.5327C8.92175 30.5455 6 27.6113 6 24C6 20.3887 8.92175 17.4545 12.5327 17.4545H14.1722Z" />
<path d="M35.445 17.4545L35.7694 17.4625C37.3881 17.5416 38.9251 18.2186 40.0776 19.369C41.3069 20.5961 41.9983 22.2614 42 23.9984C42 27.6164 39.0622 30.5455 35.445 30.5455H33.8725C32.9688 30.5455 32.2362 29.8128 32.2362 28.9091C32.2362 28.0054 32.9688 27.2727 33.8725 27.2727H35.445C37.2599 27.2727 38.7264 25.8057 38.7273 24.0016C38.7264 23.1324 38.3804 22.2985 37.7653 21.6845C37.1501 21.0706 36.3156 20.7265 35.4466 20.7273H24C23.0963 20.7273 22.3636 19.9946 22.3636 19.0909C22.3636 18.1872 23.0963 17.4545 24 17.4545H35.445Z" />
<path d="M24 6C25.736 6 27.4003 6.6901 28.6278 7.91761C29.8554 9.14512 30.5455 10.8095 30.5455 12.5455V14.1866C30.5455 15.0904 29.8128 15.823 28.9091 15.823C28.0054 15.823 27.2727 15.0904 27.2727 14.1866V12.5455C27.2727 11.6775 26.9277 10.8453 26.3139 10.2315C25.7002 9.61778 24.868 9.27273 24 9.27273C23.132 9.27273 22.2998 9.61778 21.6861 10.2315C21.0723 10.8453 20.7273 11.6775 20.7273 12.5455V23.9489C20.7271 24.8524 19.9945 25.5852 19.0909 25.5852C18.1873 25.5852 17.4548 24.8524 17.4545 23.9489V12.5455C17.4545 10.8095 18.1446 9.14512 19.3722 7.91761C20.5997 6.6901 22.264 6 24 6Z" />
</svg>
