<svg width="48" height="48" viewBox="0 0 48 48" xmlns="http://www.w3.org/2000/svg">
<path d="M40.9412 15.3529H26.1177C26.1177 11.8443 23.2734 9 19.7648 9C16.2561 9 13.4118 11.8443 13.4118 15.3529H7.05888C6.47411 15.3529 6.00006 15.827 6.00006 16.4118C6.00006 16.9965 6.47411 17.4706 7.05888 17.4706H13.7733C14.6454 19.9381 16.9987 21.7059 19.7648 21.7059C22.5309 21.7059 24.8841 19.9381 25.7562 17.4706H40.9412C41.526 17.4706 42.0001 16.9965 42.0001 16.4118C42.0001 15.827 41.526 15.3529 40.9412 15.3529Z" />
<path d="M40.9412 32.2941H34.5883C34.5883 28.7855 31.744 25.9412 28.2354 25.9412C24.7267 25.9412 21.8824 28.7855 21.8824 32.2941H7.05888C6.47411 32.2941 6.00006 32.7682 6.00006 33.3529C6.00006 33.9377 6.47411 34.4118 7.05888 34.4118H22.2439C23.116 36.8792 25.4692 38.6471 28.2354 38.6471C31.0015 38.6471 33.3547 36.8792 34.2268 34.4118H40.9412C41.526 34.4118 42.0001 33.9377 42.0001 33.3529C42.0001 32.7682 41.526 32.2941 40.9412 32.2941Z" />
</svg>
