<svg width="48" height="48" viewBox="0 0 48 48" xmlns="http://www.w3.org/2000/svg">
<path d="M19.9668 11.015C17.2573 9.6783 13.4701 9.02353 8.3998 9.00028C7.92162 8.99357 7.45282 9.13765 7.05592 9.41329C6.73013 9.64082 6.46345 9.94758 6.27933 10.3066C6.09521 10.6656 5.99929 11.0658 6 11.4721V33.6414C6 35.14 7.03192 36.2705 8.3998 36.2705C13.7296 36.2705 19.0759 36.7851 22.2781 39.9125C22.3219 39.9555 22.377 39.9842 22.4365 39.9951C22.496 40.006 22.5572 39.9986 22.6127 39.9739C22.6681 39.9491 22.7153 39.908 22.7484 39.8558C22.7814 39.8036 22.7989 39.7424 22.7986 39.68V13.5581C22.7987 13.3819 22.7622 13.2077 22.6915 13.0473C22.6209 12.8869 22.5178 12.744 22.3891 12.6283C21.6556 11.9803 20.8408 11.4377 19.9668 11.015ZM40.9411 9.41097C40.544 9.13601 40.0752 8.99274 39.5972 9.00028C34.5269 9.02353 30.7397 9.6752 28.0302 11.015C27.1562 11.4369 26.3412 11.9785 25.6071 12.6252C25.4787 12.741 25.3758 12.884 25.3053 13.0444C25.2348 13.2047 25.1984 13.3789 25.1984 13.555V39.6785C25.1984 39.7384 25.2155 39.7971 25.2476 39.8471C25.2797 39.897 25.3253 39.9361 25.3788 39.9594C25.4324 39.9826 25.4913 39.989 25.5483 39.9778C25.6054 39.9666 25.6579 39.9382 25.6994 39.8962C27.6244 37.9203 31.0029 36.2682 39.6002 36.269C40.2367 36.269 40.8471 36.0078 41.2971 35.5427C41.7472 35.0777 42 34.447 42 33.7894V11.4729C42.0009 11.0658 41.9047 10.6648 41.72 10.3051C41.5354 9.94553 41.2678 9.63844 40.9411 9.41097Z"/>
</svg>
