<svg width="48" height="48" viewBox="0 0 48 48" xmlns="http://www.w3.org/2000/svg">
	<path
		d="M9.45455 17.25C9.93676 17.25 10.3992 17.059 10.7402 16.7191C11.0812 16.3792 11.2727 15.9182 11.2727 15.4375C11.2727 14.9568 11.0812 14.4957 10.7402 14.1558C10.3992 13.8159 9.93676 13.625 9.45455 13.625C8.97234 13.625 8.50988 13.8159 8.1689 14.1558C7.82793 14.4957 7.63637 14.9568 7.63637 15.4375C7.63637 15.9182 7.82793 16.3792 8.1689 16.7191C8.50988 17.059 8.97234 17.25 9.45455 17.25ZM38.5455 17.25C39.0277 17.25 39.4901 17.059 39.8311 16.7191C40.1721 16.3792 40.3636 15.9182 40.3636 15.4375C40.3636 14.9568 40.1721 14.4957 39.8311 14.1558C39.4901 13.8159 39.0277 13.625 38.5455 13.625C38.0632 13.625 37.6008 13.8159 37.2598 14.1558C36.9188 14.4957 36.7273 14.9568 36.7273 15.4375C36.7273 15.9182 36.9188 16.3792 37.2598 16.7191C37.6008 17.059 38.0632 17.25 38.5455 17.25ZM38.5455 35.375C39.0277 35.375 39.4901 35.184 39.8311 34.8441C40.1721 34.5042 40.3636 34.0432 40.3636 33.5625C40.3636 33.0818 40.1721 32.6208 39.8311 32.2809C39.4901 31.9409 39.0277 31.75 38.5455 31.75C38.0632 31.75 37.6008 31.9409 37.2598 32.2809C36.9188 32.6208 36.7273 33.0818 36.7273 33.5625C36.7273 34.0432 36.9188 34.5042 37.2598 34.8441C37.6008 35.184 38.0632 35.375 38.5455 35.375ZM38.5455 39C37.4185 38.9987 36.3197 38.6495 35.4 38.0004C34.4802 37.3513 33.7847 36.4341 33.4091 35.375H29.1727C25.1909 35.375 21.7618 32.2847 21.7618 28.2881V20.7118C21.7618 18.9066 20.1564 17.25 17.9855 17.25H14.5927C14.1654 18.4605 13.3221 19.4811 12.2123 20.1312C11.1024 20.7813 9.79751 21.0188 8.52878 20.8017C7.26004 20.5847 6.10932 19.927 5.28042 18.9451C4.45152 17.9633 3.99794 16.7207 4.00001 15.4375C4.00293 14.157 4.45907 12.9186 5.28809 11.9405C6.1171 10.9624 7.2658 10.3073 8.53179 10.0907C9.79778 9.87406 11.0999 10.1098 12.2086 10.7563C13.3174 11.4029 14.1616 12.4187 14.5927 13.625H33.4091C33.8373 12.4157 34.6807 11.3965 35.7902 10.7474C36.8996 10.0984 38.2036 9.86139 39.4714 10.0784C40.7392 10.2953 41.8892 10.9523 42.718 11.933C43.5467 12.9138 44.0008 14.1551 44 15.4375C44.0008 16.7198 43.5467 17.9611 42.718 18.9419C41.8892 19.9226 40.7392 20.5796 39.4714 20.7966C38.2036 21.0135 36.8996 20.7765 35.7902 20.1275C34.6807 19.4784 33.8373 18.4592 33.4091 17.25H24.4545C25.0545 18.265 25.4 19.4431 25.4 20.7118V28.2881C25.4 30.0934 27.0036 31.75 29.1745 31.75H33.4091C33.8373 30.5408 34.6807 29.5215 35.7902 28.8725C36.8996 28.2234 38.2036 27.9864 39.4714 28.2034C40.7392 28.4204 41.8892 29.0773 42.718 30.0581C43.5467 31.0388 44.0008 32.2801 44 33.5625C44 35.0046 43.4253 36.3877 42.4024 37.4074C41.3795 38.4271 39.9921 39 38.5455 39Z"
	/>
</svg>