<svg width="48" height="48" viewBox="0 0 48 48" xmlns="http://www.w3.org/2000/svg">
<path d="M20.2222 13.3333V11.5556H27.3334V13.3333H30.8889V11.5556C30.8889 10.6126 30.5143 9.70819 29.8475 9.0414C29.1807 8.3746 28.2763 8 27.3334 8H20.2222C19.2793 8 18.3749 8.3746 17.7081 9.0414C17.0413 9.70819 16.6667 10.6126 16.6667 11.5556V13.3333H20.2222Z" />
<path opacity="0.25" d="M18.4445 29.3333C17.973 29.3333 17.5208 29.146 17.1874 28.8126C16.854 28.4792 16.6667 28.0271 16.6667 27.5556V24C16.6667 23.5285 16.854 23.0763 17.1874 22.7429C17.5208 22.4095 17.973 22.2222 18.4445 22.2222C18.916 22.2222 19.3681 22.4095 19.7015 22.7429C20.0349 23.0763 20.2222 23.5285 20.2222 24V27.5556C20.2222 28.0271 20.0349 28.4792 19.7015 28.8126C19.3681 29.146 18.916 29.3333 18.4445 29.3333ZM29.1111 29.3333C28.6396 29.3333 28.1875 29.146 27.8541 28.8126C27.5207 28.4792 27.3334 28.0271 27.3334 27.5556V24C27.3334 23.5285 27.5207 23.0763 27.8541 22.7429C28.1875 22.4095 28.6396 22.2222 29.1111 22.2222C29.5826 22.2222 30.0348 22.4095 30.3682 22.7429C30.7016 23.0763 30.8889 23.5285 30.8889 24V27.5556C30.8889 28.0271 30.7016 28.4792 30.3682 28.8126C30.0348 29.146 29.5826 29.3333 29.1111 29.3333Z" />
<path opacity="0.5" d="M38 13.3333H9.55556C8.61256 13.3333 7.70819 13.7079 7.0414 14.3747C6.3746 15.0415 6 15.9459 6 16.8889V22.2222C6 23.1652 6.3746 24.0696 7.0414 24.7364C7.70819 25.4032 8.61256 25.7778 9.55556 25.7778H16.6667V24C16.6667 23.5285 16.854 23.0763 17.1874 22.7429C17.5208 22.4095 17.9729 22.2222 18.4444 22.2222C18.9159 22.2222 19.3681 22.4095 19.7015 22.7429C20.0349 23.0763 20.2222 23.5285 20.2222 24V25.7778H27.3333V24C27.3333 23.5285 27.5206 23.0763 27.854 22.7429C28.1874 22.4095 28.6396 22.2222 29.1111 22.2222C29.5826 22.2222 30.0348 22.4095 30.3682 22.7429C30.7016 23.0763 30.8889 23.5285 30.8889 24V25.7778H38C38.943 25.7778 39.8474 25.4032 40.5142 24.7364C41.181 24.0696 41.5556 23.1652 41.5556 22.2222V16.8889C41.5556 15.9459 41.181 15.0415 40.5142 14.3747C39.8474 13.7079 38.943 13.3333 38 13.3333Z" />
<path d="M38 25.7778H30.8889V27.5556C30.8889 28.0271 30.7016 28.4792 30.3682 28.8126C30.0348 29.146 29.5826 29.3333 29.1111 29.3333C28.6396 29.3333 28.1874 29.146 27.854 28.8126C27.5206 28.4792 27.3333 28.0271 27.3333 27.5556V25.7778H20.2222V27.5556C20.2222 28.0271 20.0349 28.4792 19.7015 28.8126C19.3681 29.146 18.9159 29.3333 18.4444 29.3333C17.9729 29.3333 17.5208 29.146 17.1874 28.8126C16.854 28.4792 16.6667 28.0271 16.6667 27.5556V25.7778H9.55556C8.61256 25.7778 7.70819 25.4032 7.0414 24.7364C6.3746 24.0696 6 23.1652 6 22.2222V36.4445C6 37.3874 6.3746 38.2918 7.0414 38.9586C7.70819 39.6254 8.61256 40 9.55556 40H38C38.943 40 39.8474 39.6254 40.5142 38.9586C41.181 38.2918 41.5556 37.3874 41.5556 36.4445V22.2222C41.5556 23.1652 41.181 24.0696 40.5142 24.7364C39.8474 25.4032 38.943 25.7778 38 25.7778Z" />
</svg>
