<svg width="48" height="48" viewBox="0 0 48 48" xmlns="http://www.w3.org/2000/svg">
  <path
    d="M34.0247 10.4588V8.25926C34.0247 7.92528 33.8921 7.60499 33.6559 7.36883C33.4198 7.13267 33.0995 7 32.7655 7C32.4315 7 32.1112 7.13267 31.8751 7.36883C31.6389 7.60499 31.5062 7.92528 31.5062 8.25926V10.358H17.2346V8.25926C17.2346 7.92528 17.102 7.60499 16.8658 7.36883C16.6296 7.13267 16.3093 7 15.9754 7C15.6414 7 15.3211 7.13267 15.0849 7.36883C14.8488 7.60499 14.7161 7.92528 14.7161 8.25926V10.4588C12.8446 10.7615 11.1416 11.7196 9.9113 13.1621C8.68103 14.6046 8.00362 16.4375 8.00006 18.3333V33.0247C8.00006 34.072 8.20635 35.1091 8.60715 36.0767C9.00794 37.0443 9.5954 37.9235 10.336 38.6641C11.8316 40.1597 13.8602 41 15.9754 41H32.7655C33.8128 41 34.8499 40.7937 35.8175 40.3929C36.7851 39.9921 37.6643 39.4047 38.4049 38.6641C39.1455 37.9235 39.7329 37.0443 40.1337 36.0767C40.5345 35.1091 40.7408 34.072 40.7408 33.0247V18.3333C40.7372 16.4375 40.0598 14.6046 38.8296 13.1621C37.5993 11.7196 35.8963 10.7615 34.0247 10.4588ZM18.326 33.9649H16.647C16.313 33.9649 15.9927 33.8323 15.7565 33.5961C15.5204 33.36 15.3877 33.0397 15.3877 32.7057C15.3877 32.3717 15.5204 32.0514 15.7565 31.8152C15.9927 31.5791 16.313 31.4464 16.647 31.4464H18.326C18.66 31.4464 18.9803 31.5791 19.2164 31.8152C19.4526 32.0514 19.5852 32.3717 19.5852 32.7057C19.5852 33.0397 19.4526 33.36 19.2164 33.5961C18.9803 33.8323 18.66 33.9649 18.326 33.9649ZM18.326 28.7936H16.647C16.313 28.7936 15.9927 28.6609 15.7565 28.4248C15.5204 28.1886 15.3877 27.8683 15.3877 27.5343C15.3877 27.2003 15.5204 26.88 15.7565 26.6439C15.9927 26.4077 16.313 26.2751 16.647 26.2751H18.326C18.66 26.2751 18.9803 26.4077 19.2164 26.6439C19.4526 26.88 19.5852 27.2003 19.5852 27.5343C19.5852 27.8683 19.4526 28.1886 19.2164 28.4248C18.9803 28.6609 18.66 28.7936 18.326 28.7936ZM25.2267 33.9649H23.5477C23.2137 33.9649 22.8934 33.8323 22.6573 33.5961C22.4211 33.36 22.2885 33.0397 22.2885 32.7057C22.2885 32.3717 22.4211 32.0514 22.6573 31.8152C22.8934 31.5791 23.2137 31.4464 23.5477 31.4464H25.2267C25.5607 31.4464 25.881 31.5791 26.1172 31.8152C26.3533 32.0514 26.486 32.3717 26.486 32.7057C26.486 33.0397 26.3533 33.36 26.1172 33.5961C25.881 33.8323 25.5607 33.9649 25.2267 33.9649ZM25.2267 28.7936H23.5477C23.2137 28.7936 22.8934 28.6609 22.6573 28.4248C22.4211 28.1886 22.2885 27.8683 22.2885 27.5343C22.2885 27.2003 22.4211 26.88 22.6573 26.6439C22.8934 26.4077 23.2137 26.2751 23.5477 26.2751H25.2267C25.5607 26.2751 25.881 26.4077 26.1172 26.6439C26.3533 26.88 26.486 27.2003 26.486 27.5343C26.486 27.8683 26.3533 28.1886 26.1172 28.4248C25.881 28.6609 25.5607 28.7936 25.2267 28.7936ZM32.1275 33.9649H30.4485C30.1145 33.9649 29.7942 33.8323 29.558 33.5961C29.3219 33.36 29.1892 33.0397 29.1892 32.7057C29.1892 32.3717 29.3219 32.0514 29.558 31.8152C29.7942 31.5791 30.1145 31.4464 30.4485 31.4464H32.1275C32.4614 31.4464 32.7817 31.5791 33.0179 31.8152C33.2541 32.0514 33.3867 32.3717 33.3867 32.7057C33.3867 33.0397 33.2541 33.36 33.0179 33.5961C32.7817 33.8323 32.4614 33.9649 32.1275 33.9649ZM32.1275 28.7936H30.4485C30.1145 28.7936 29.7942 28.6609 29.558 28.4248C29.3219 28.1886 29.1892 27.8683 29.1892 27.5343C29.1892 27.2003 29.3219 26.88 29.558 26.6439C29.7942 26.4077 30.1145 26.2751 30.4485 26.2751H32.1275C32.4614 26.2751 32.7817 26.4077 33.0179 26.6439C33.2541 26.88 33.3867 27.2003 33.3867 27.5343C33.3867 27.8683 33.2541 28.1886 33.0179 28.4248C32.7817 28.6609 32.4614 28.7936 32.1275 28.7936ZM38.2223 20.3985H10.5186V18.2998C10.5202 17.0742 10.9356 15.8852 11.6975 14.9253C12.4593 13.9653 13.523 13.2908 14.7161 13.0109V14.9417C14.7161 15.2757 14.8488 15.596 15.0849 15.8322C15.3211 16.0683 15.6414 16.201 15.9754 16.201C16.3093 16.201 16.6296 16.0683 16.8658 15.8322C17.102 15.596 17.2346 15.2757 17.2346 14.9417V12.843H31.5062V14.9417C31.5062 15.2757 31.6389 15.596 31.8751 15.8322C32.1112 16.0683 32.4315 16.201 32.7655 16.201C33.0995 16.201 33.4198 16.0683 33.6559 15.8322C33.8921 15.596 34.0247 15.2757 34.0247 14.9417V13.0109C35.2179 13.2908 36.2815 13.9653 37.0434 14.9253C37.8052 15.8852 38.2206 17.0742 38.2223 18.2998V20.3985Z" />
</svg>