<svg width="48" height="48" viewBox="0 0 48 48" xmlns="http://www.w3.org/2000/svg">
<path d="M31.2 31.15C31.2 32.7015 30.5837 34.1895 29.4866 35.2866C28.3895 36.3837 26.9015 37 25.35 37H11.85C10.2985 37 8.81051 36.3837 7.71343 35.2866C6.61634 34.1895 6 32.7015 6 31.15V15.85C6 14.2985 6.61634 12.8105 7.71343 11.7134C8.81051 10.6163 10.2985 10 11.85 10H25.35C26.9015 10 28.3895 10.6163 29.4866 11.7134C30.5837 12.8105 31.2 14.2985 31.2 15.85V31.15ZM41.5716 12.5074C41.8483 12.833 42.0002 13.2465 42 13.6738V33.3262C42.0001 33.6699 41.9018 34.0065 41.7167 34.2962C41.5316 34.5858 41.2674 34.8164 40.9554 34.9607C40.6434 35.1049 40.2966 35.1568 39.9561 35.1102C39.6155 35.0637 39.2954 34.9205 39.0336 34.6978L33 29.566V17.4304L39.0336 12.3022C39.2137 12.149 39.4222 12.0327 39.6472 11.9601C39.8723 11.8875 40.1094 11.8599 40.3451 11.879C40.5808 11.898 40.8104 11.9633 41.0209 12.0712C41.2313 12.179 41.4185 12.3272 41.5716 12.5074Z"/>
</svg>
