<svg width="48" height="48" viewBox="0 0 48 48"  xmlns="http://www.w3.org/2000/svg">
<path d="M15.78 22.328L15.754 22.352C15.3194 22.7851 15.0746 23.3732 15.0735 23.9867C15.0724 24.6003 15.315 25.1893 15.748 25.624L15.772 25.648C16.672 26.552 18.138 26.556 19.044 25.654L19.068 25.63C19.974 24.73 19.976 23.264 19.074 22.358L19.05 22.334C18.6169 21.8994 18.0288 21.6546 17.4152 21.6535C16.8017 21.6524 16.2147 21.895 15.78 22.328Z" />
<path d="M17.522 12.476L15.044 14.944L15.06 14.96L8.45 21.54V21.528L6 23.964L6.01 23.974L6 23.984L8.422 26.416L17.442 35.524C17.442 35.524 19.576 32.71 17.478 30.604L10.878 23.97L17.484 17.386L20.818 20.742C23.662 23.602 25.69 20.678 25.69 20.678L17.522 12.476ZM41.968 24.02L42 23.99L30.596 12.536C30.596 12.536 28.502 15.274 30.486 17.266L37.22 24.028L30.628 30.594L27.544 27.5C25.334 25.28 22.406 27.29 22.406 27.29L30.534 35.45L41.986 24.04L41.968 24.02Z" />
<path d="M28.964 22.328L28.94 22.352C28.5051 22.7849 28.26 23.3727 28.2585 23.9863C28.257 24.5999 28.4993 25.189 28.932 25.624L28.958 25.648C29.858 26.552 31.324 26.556 32.23 25.654L32.254 25.63C33.158 24.73 33.162 23.264 32.26 22.358L32.236 22.334C31.8029 21.8994 31.2148 21.6546 30.6012 21.6535C29.9877 21.6524 29.3987 21.895 28.964 22.328Z" />
</svg>
