<svg width="48" height="48" viewBox="0 0 48 48" xmlns="http://www.w3.org/2000/svg">
<path fill-rule="evenodd" clip-rule="evenodd" d="M16.8286 10.9446C21.838 10.567 26.8697 10.5918 31.8752 11.0187L34.8919 11.2759C37.1706 11.4703 39.0199 13.1996 39.3664 15.4602L39.5568 16.7019C40.2026 20.9154 40.1423 25.207 39.3782 29.4007C39.0011 31.4699 37.1986 32.9737 35.0953 32.9737H18.4182C18.0345 32.9737 17.6568 33.0688 17.3188 33.2504L10.053 37.1551C9.6212 37.3872 9.09918 37.3753 8.6784 37.1237C8.25763 36.8722 8 36.418 8 35.9277V20.1036C8 15.3128 11.6924 11.3317 16.4696 10.9717L16.8286 10.9446ZM16.825 20.1357C15.5424 20.1357 14.5026 21.1755 14.5026 22.4581C14.5026 23.7407 15.5424 24.7804 16.825 24.7804C18.1076 24.7804 19.1473 23.7407 19.1473 22.4581C19.1473 21.1755 18.1076 20.1357 16.825 20.1357ZM24.2565 20.1357C22.9739 20.1357 21.9341 21.1755 21.9341 22.4581C21.9341 23.7407 22.9739 24.7804 24.2565 24.7804C25.5391 24.7804 26.5789 23.7407 26.5789 22.4581C26.5789 21.1755 25.5391 20.1357 24.2565 20.1357ZM29.3657 22.4581C29.3657 21.1755 30.4054 20.1357 31.688 20.1357C32.9706 20.1357 34.0104 21.1755 34.0104 22.4581C34.0104 23.7407 32.9706 24.7804 31.688 24.7804C30.4054 24.7804 29.3657 23.7407 29.3657 22.4581Z"/>
</svg>
