<svg width="48" height="48" viewBox="0 0 48 48" fill="none" xmlns="http://www.w3.org/2000/svg">
<path d="M17.1133 32.3258L9.65719 24.8697C9.25543 24.468 8.71052 24.2422 8.14233 24.2422C7.57415 24.2422 7.02924 24.468 6.62747 24.8697C6.22571 25.2715 6 25.8164 6 26.3846C6 26.6659 6.05541 26.9445 6.16308 27.2044C6.27074 27.4643 6.42854 27.7005 6.62747 27.8994L15.6092 36.8812C16.4472 37.7192 17.8009 37.7192 18.6389 36.8812L41.3725 14.1475C41.7743 13.7458 42 13.2009 42 12.6327C42 12.0645 41.7743 11.5196 41.3725 11.1178C40.9708 10.7161 40.4258 10.4903 39.8577 10.4903C39.2895 10.4903 38.7446 10.7161 38.3428 11.1178L17.1133 32.3258Z" fill="black"/>
</svg>
