<svg width="48" height="48" viewBox="0 0 48 48" xmlns="http://www.w3.org/2000/svg">
  <path
    d="M24.72 8C13.16 8 5.28802 19.714 9.64802 30.42L11.514 34.996C11.5955 35.1956 11.6103 35.4161 11.5563 35.6248C11.5022 35.8335 11.3822 36.0191 11.214 36.154L7.26802 39.32C7.10647 39.4496 6.98915 39.6262 6.93226 39.8253C6.87537 40.0245 6.88172 40.2364 6.95044 40.4318C7.01915 40.6272 7.14684 40.7964 7.31586 40.9161C7.48488 41.0358 7.6869 41.1 7.89402 41.1H23.534C25.8277 41.1008 28.0991 40.6496 30.2184 39.7723C32.3377 38.8949 34.2634 37.6086 35.8854 35.9868C37.5074 34.365 38.7939 32.4395 39.6715 30.3203C40.5491 28.2011 41.0005 25.9297 41 23.636C41 15 34 8 25.364 8H24.72Z" />
</svg>