<svg width="48" height="48" viewBox="0 0 48 48" xmlns="http://www.w3.org/2000/svg">
	<path fill-rule="evenodd" clip-rule="evenodd"
		d="M9.86344 24C9.86344 16.268 15.9174 10 23.3855 10C30.8534 10 36.9074 16.268 36.9074 24V25.172L34.4097 22.586L31.6783 25.414L38.8391 32.828L46 25.414L43.2685 22.586L40.7708 25.172V24C40.7708 14.058 32.988 6 23.3855 6C13.7828 6 6 14.058 6 24C6 33.942 13.7828 42 23.3855 42C27.4942 42 31.2765 40.522 34.2533 38.052L31.8367 34.93C29.5206 36.852 26.5843 38 23.3855 38C15.9174 38 9.86344 31.732 9.86344 24ZM22 19.8907V32H26V16H22.4102L17.1016 19.1172L18.7891 21.8946L22 19.8907Z"
	/>
</svg>