<svg width="48" height="48" viewBox="0 0 48 48" xmlns="http://www.w3.org/2000/svg">
  <path
    d="M5.5534 39.7788L23.7162 21.616L21.0675 18.9294L19.7053 20.2727C19.5302 20.4481 19.3223 20.5873 19.0934 20.6822C18.8646 20.7772 18.6192 20.826 18.3714 20.826C18.1236 20.826 17.8783 20.7772 17.6494 20.6822C17.4205 20.5873 17.2126 20.4481 17.0376 20.2727L15.6943 18.9294C15.5189 18.7544 15.3798 18.5465 15.2848 18.3176C15.1899 18.0888 15.141 17.8434 15.141 17.5956C15.141 17.3478 15.1899 17.1025 15.2848 16.8736C15.3798 16.6447 15.5189 16.4368 15.6943 16.2618L26.4028 5.55329C26.5778 5.3779 26.7857 5.23875 27.0146 5.14381C27.2435 5.04887 27.4888 5 27.7366 5C27.9844 5 28.2298 5.04887 28.4586 5.14381C28.6875 5.23875 28.8954 5.3779 29.0705 5.55329L30.4137 6.89658C31.1516 7.63445 31.1516 8.82638 30.4137 9.56425L29.0705 10.8697L31.757 13.5752C31.9321 13.3998 32.14 13.2607 32.3688 13.1657C32.5977 13.0708 32.8431 13.0219 33.0909 13.0219C33.3387 13.0219 33.584 13.0708 33.8129 13.1657C34.0418 13.2607 34.2497 13.3998 34.4247 13.5752C35.1626 14.3131 35.1626 15.5239 34.4247 16.2618L37.0924 18.9294L38.4357 17.5862C39.1735 16.8483 40.3844 16.8483 41.1222 17.5862L42.4466 18.9294C43.1845 19.6673 43.1845 20.8782 42.4466 21.616L31.757 32.3056C31.0192 33.0435 29.8083 33.0435 29.0705 32.3056L27.7461 30.9812C27.5664 30.8067 27.4236 30.5978 27.3261 30.3671C27.2286 30.1364 27.1784 29.8884 27.1784 29.6379C27.1784 29.3874 27.2286 29.1395 27.3261 28.9088C27.4236 28.678 27.5664 28.4692 27.7461 28.2946L29.0705 26.9514L26.4028 24.2837L8.22106 42.4654C8.04603 42.6408 7.83812 42.78 7.60925 42.8749C7.38037 42.9698 7.13502 43.0187 6.88723 43.0187C6.63944 43.0187 6.39409 42.9698 6.16521 42.8749C5.93634 42.78 5.72843 42.6408 5.5534 42.4654C4.81553 41.7276 4.81553 40.5167 5.5534 39.7788ZM39.0411 37.3571C40.0446 37.3571 41.0071 37.7558 41.7167 38.4654C42.4263 39.175 42.825 40.1375 42.825 41.141V43.033H23.9054V41.141C23.9054 40.1375 24.3041 39.175 25.0137 38.4654C25.7233 37.7558 26.6858 37.3571 27.6893 37.3571H39.0411Z" />
</svg>