<svg width="48" height="48" viewBox="0 0 48 48"  xmlns="http://www.w3.org/2000/svg">
<path d="M11.6144 9.548C10.5856 10.6 10.5856 11.8 11.6144 12.852C12.22 13.4712 13.1552 14.084 14.4048 14.624C16.9 15.704 20.4304 16.4 24.3936 16.4C28.3568 16.4 31.8872 15.7032 34.3824 14.624C35.632 14.084 36.5664 13.4712 37.1728 12.852C38.2016 11.8 38.2016 10.6 37.1728 9.548C36.5672 8.9288 35.632 8.316 34.3824 7.776C31.8872 6.696 28.3568 6 24.3936 6C20.4304 6 16.9 6.6968 14.4048 7.776C13.1552 8.316 12.2208 8.9288 11.6144 9.548Z" />
<path fill-rule="evenodd" clip-rule="evenodd" d="M8.3912 11.2008L8.3936 11.1632V11.2C8.3936 12.4856 9.0016 13.6128 9.8984 14.5304C10.7912 15.4424 12.0232 16.2088 13.452 16.8264C16.3136 18.064 20.1824 18.8 24.3936 18.8C28.6048 18.8 32.4736 18.064 35.3352 16.8272C36.764 16.2088 37.996 15.4432 38.888 14.5304C39.7856 13.6128 40.3936 12.4536 40.3936 11.168L40.4544 12.236C40.492 12.94 40.5424 13.9448 40.5928 15.1504C40.6784 17.2032 40.764 19.8424 40.7872 22.572C40.6848 23.9832 39.324 25.6088 36.3424 26.964C33.3456 28.3272 29.1216 29.2 24.3936 29.2C19.6656 29.2 15.4416 28.3264 12.4448 26.9648C9.4632 25.6088 8.1024 23.9832 8 22.5728C8.024 19.8424 8.1088 17.2032 8.1944 15.1504C8.2495 13.8331 8.3151 12.5163 8.3912 11.2M11.9936 22.4C11.9936 21.9757 12.1622 21.5687 12.4622 21.2686C12.7623 20.9686 13.1693 20.8 13.5936 20.8C14.0179 20.8 14.4249 20.9686 14.725 21.2686C15.025 21.5687 15.1936 21.9757 15.1936 22.4C15.1936 22.8244 15.025 23.2313 14.725 23.5314C14.4249 23.8314 14.0179 24 13.5936 24C13.1693 24 12.7623 23.8314 12.4622 23.5314C12.1622 23.2313 11.9936 22.8244 11.9936 22.4ZM18.7936 25.4C19.2179 25.4 19.6249 25.2314 19.925 24.9314C20.225 24.6313 20.3936 24.2244 20.3936 23.8C20.3936 23.3757 20.225 22.9687 19.925 22.6686C19.6249 22.3686 19.2179 22.2 18.7936 22.2C18.3693 22.2 17.9623 22.3686 17.6622 22.6686C17.3622 22.9687 17.1936 23.3757 17.1936 23.8C17.1936 24.2244 17.3622 24.6313 17.6622 24.9314C17.9623 25.2314 18.3693 25.4 18.7936 25.4Z" />
<path fill-rule="evenodd" clip-rule="evenodd" d="M8.19522 31.6664C8.11095 30.1209 8.05388 28.5739 8.02402 27.0264C8.98402 27.8544 10.1656 28.5648 11.452 29.1496C14.8256 30.6832 19.4016 31.6 24.3936 31.6C29.3856 31.6 33.9616 30.6832 37.3352 29.1496C38.6216 28.5648 39.8032 27.8536 40.7632 27.0264C40.7264 28.8888 40.6592 30.456 40.592 31.6664C40.5429 32.5526 40.4808 33.438 40.4056 34.3224L40.4024 34.3656L40.3928 34.4624C40.3736 35.7224 39.7712 36.8272 38.8888 37.7304C37.996 38.6424 36.764 39.4088 35.3352 40.0264C32.4736 41.264 28.604 42 24.3936 42C20.1832 42 16.3136 41.264 13.452 40.0272C12.0232 39.4088 10.7912 38.6432 9.89842 37.7304C9.01602 36.828 8.41362 35.7224 8.39442 34.4632L8.38082 34.3232L8.33442 33.7696C8.28057 33.069 8.23417 32.3679 8.19522 31.6664ZM13.5936 36.4C14.018 36.4 14.4249 36.2314 14.725 35.9314C15.025 35.6313 15.1936 35.2243 15.1936 34.8C15.1936 34.3757 15.025 33.9687 14.725 33.6686C14.4249 33.3686 14.018 33.2 13.5936 33.2C13.1693 33.2 12.7623 33.3686 12.4622 33.6686C12.1622 33.9687 11.9936 34.3757 11.9936 34.8C11.9936 35.2243 12.1622 35.6313 12.4622 35.9314C12.7623 36.2314 13.1693 36.4 13.5936 36.4ZM18.7936 37.8C19.218 37.8 19.6249 37.6314 19.925 37.3314C20.225 37.0313 20.3936 36.6243 20.3936 36.2C20.3936 35.7757 20.225 35.3687 19.925 35.0686C19.6249 34.7686 19.218 34.6 18.7936 34.6C18.3693 34.6 17.9623 34.7686 17.6622 35.0686C17.3622 35.3687 17.1936 35.7757 17.1936 36.2C17.1936 36.6243 17.3622 37.0313 17.6622 37.3314C17.9623 37.6314 18.3693 37.8 18.7936 37.8Z" />
</svg>
