<svg width="48" height="48" viewBox="0 0 48 48" xmlns="http://www.w3.org/2000/svg">
<path d="M34.8 15.6L34.7952 12.2032C35.4984 12.4507 36.1074 12.9104 36.5382 13.5189C36.969 14.1273 37.2002 14.8545 37.2 15.6V27.6C36.5669 27.3339 35.8867 27.1979 35.2 27.2H34.8V15.6ZM11.6 11.6V16.4C12.2331 16.1339 12.9133 15.9979 13.6 16H18.1536C18.8688 16.0002 19.5762 16.148 20.2317 16.434C20.8872 16.72 21.4767 17.1382 21.9632 17.6624L30.8224 27.2H33.2V11.6C33.2 10.6452 32.8207 9.72955 32.1456 9.05442C31.4705 8.37928 30.5548 8 29.6 8H15.2C14.2452 8 13.3295 8.37928 12.6544 9.05442C11.9793 9.72955 11.6 10.6452 11.6 11.6ZM13.6 17.6C12.6452 17.6 11.7295 17.9793 11.0544 18.6544C10.3793 19.3295 10 20.2452 10 21.2V34.8C10 35.4829 10.1345 36.1591 10.3958 36.79C10.6572 37.4208 11.0402 37.9941 11.523 38.477C12.0059 38.9598 12.5792 39.3429 13.21 39.6042C13.8409 39.8655 14.5171 40 15.2 40H33.6C34.2829 40 34.9591 39.8655 35.59 39.6042C36.2208 39.3429 36.7941 38.9598 37.277 38.477C37.7598 37.9941 38.1428 37.4208 38.4042 36.79C38.6655 36.1591 38.8 35.4829 38.8 34.8V32.4C38.8 31.4452 38.4207 30.5295 37.7456 29.8544C37.0705 29.1793 36.1548 28.8 35.2 28.8H30.6464C30.4812 28.8 30.3177 28.7659 30.1663 28.6998C30.0149 28.6338 29.8787 28.5371 29.7664 28.416L20.7904 18.752C20.4539 18.3892 20.0462 18.0996 19.5928 17.9014C19.1394 17.7032 18.65 17.6006 18.1552 17.6H13.6Z"/>
</svg>
