<svg width="48" height="48" viewBox="0 0 48 48"  xmlns="http://www.w3.org/2000/svg">
<path d="M7.17157 21.1716C7.92172 20.4214 8.93913 20 10 20C11.0609 20 12.0783 20.4214 12.8284 21.1716C13.5786 21.9217 14 22.9391 14 24C14 25.0609 13.5786 26.0783 12.8284 26.8284C12.0783 27.5786 11.0609 28 10 28C8.93913 28 7.92172 27.5786 7.17157 26.8284C6.42143 26.0783 6 25.0609 6 24C6 22.9391 6.42143 21.9217 7.17157 21.1716Z"/>
<path d="M21.1716 21.1716C21.9217 20.4214 22.9391 20 24 20C25.0609 20 26.0783 20.4214 26.8284 21.1716C27.5786 21.9217 28 22.9391 28 24C28 25.0609 27.5786 26.0783 26.8284 26.8284C26.0783 27.5786 25.0609 28 24 28C22.9391 28 21.9217 27.5786 21.1716 26.8284C20.4214 26.0783 20 25.0609 20 24C20 22.9391 20.4214 21.9217 21.1716 21.1716Z" />
<path d="M35.1716 21.1716C35.9217 20.4214 36.9391 20 38 20C39.0609 20 40.0783 20.4214 40.8284 21.1716C41.5786 21.9217 42 22.9391 42 24C42 25.0609 41.5786 26.0783 40.8284 26.8284C40.0783 27.5786 39.0609 28 38 28C36.9391 28 35.9217 27.5786 35.1716 26.8284C34.4214 26.0783 34 25.0609 34 24C34 22.9391 34.4214 21.9217 35.1716 21.1716Z" />
</svg>
