<svg width="48" height="48" viewBox="0 0 48 48" xmlns="http://www.w3.org/2000/svg">
<path d="M40 30.5C40.8284 30.5 41.5 31.1716 41.5 32V34C41.5 35.9891 40.7093 37.8962 39.3027 39.3027C37.8962 40.7093 35.9891 41.5 34 41.5H14C12.0109 41.5 10.1038 40.7093 8.69727 39.3027C7.29074 37.8962 6.5 35.9891 6.5 34V32.0078C6.5001 31.1795 7.17164 30.5078 8 30.5078C8.82836 30.5078 9.4999 31.1795 9.5 32.0078V34C9.5 35.1935 9.97445 36.3377 10.8184 37.1816C11.6623 38.0256 12.8065 38.5 14 38.5H34C35.1935 38.5 36.3377 38.0256 37.1816 37.1816C38.0256 36.3377 38.5 35.1935 38.5 34V32C38.5 31.1716 39.1716 30.5 40 30.5Z"/>
<path d="M24 7.5C24.8284 7.5 25.5 8.17157 25.5 9V27.3789L29.9395 22.9395C30.5252 22.3537 31.4748 22.3537 32.0605 22.9395C32.6463 23.5252 32.6463 24.4748 32.0605 25.0605L25.0605 32.0605C24.4748 32.6463 23.5252 32.6463 22.9395 32.0605L15.9395 25.0605C15.3537 24.4748 15.3537 23.5252 15.9395 22.9395C16.5252 22.3537 17.4748 22.3537 18.0605 22.9395L22.5 27.3789V9C22.5 8.17157 23.1716 7.5 24 7.5Z"/>
</svg>
