<svg width="48" height="48" viewBox="0 0 48 48" xmlns="http://www.w3.org/2000/svg">
<path d="M8.95543 25.8912V25.9002C8.90484 26.091 8.81715 26.2699 8.69737 26.4267C8.57759 26.5836 8.42807 26.7153 8.25736 26.8143C8.08664 26.9134 7.89808 26.9778 7.70246 27.0039C7.50684 27.03 7.30799 27.0173 7.11728 26.9664C5.82277 26.6241 6.05104 25.1313 6.05104 25.1313L6.1051 24.9451C6.1051 24.9451 6.18319 24.6928 6.24627 24.5096C7.01703 22.3485 8.15169 20.3352 9.60118 18.5566C12.2953 15.2708 16.8276 12 24.021 12C31.2144 12 35.7467 15.2708 38.4438 18.5566C39.8933 20.3352 41.028 22.3485 41.7987 24.5096C41.8634 24.6953 41.9235 24.8826 41.9789 25.0712L41.9879 25.1103V25.1223L41.9909 25.1283C42.0862 25.5106 42.0275 25.9149 41.8274 26.2543C41.6273 26.5936 41.3019 26.8407 40.9213 26.9424C40.5407 27.044 40.1354 26.9921 39.7927 26.7977C39.4501 26.6033 39.1976 26.2821 39.0896 25.9032L39.0866 25.8912L39.0625 25.8161L38.9574 25.4887C38.3028 23.6642 37.343 21.964 36.1191 20.4609C33.8905 17.7427 30.1632 15.0035 24.021 15.0035C17.8788 15.0035 14.1545 17.7427 11.9229 20.4609C10.699 21.964 9.73921 23.6642 9.08458 25.4887L8.97945 25.8161L8.95543 25.8912ZM16.5122 28.5193C16.5122 26.5278 17.3033 24.6179 18.7115 23.2098C20.1197 21.8016 22.0295 21.0105 24.021 21.0105C26.0124 21.0105 27.9223 21.8016 29.3305 23.2098C30.7386 24.6179 31.5297 26.5278 31.5297 28.5193C31.5297 30.5107 30.7386 32.4206 29.3305 33.8288C27.9223 35.2369 26.0124 36.028 24.021 36.028C22.0295 36.028 20.1197 35.2369 18.7115 33.8288C17.3033 32.4206 16.5122 30.5107 16.5122 28.5193Z"/>
</svg>
