<svg width="48" height="48" viewBox="0 0 48 48" xmlns="http://www.w3.org/2000/svg">
  <path
    d="M14 25.2H12.8V22.8H14C14.3182 22.8 14.6235 22.9264 14.8485 23.1515C15.0736 23.3765 15.2 23.6817 15.2 24C15.2 24.3182 15.0736 24.6235 14.8485 24.8485C14.6235 25.0736 14.3182 25.2 14 25.2ZM22.4 30V22.8H23.6C23.9182 22.8 24.2235 22.9264 24.4485 23.1515C24.6736 23.3765 24.8 23.6817 24.8 24V28.8C24.8 29.1182 24.6736 29.4235 24.4485 29.6485C24.2235 29.8736 23.9182 30 23.6 30H22.4Z" />
  <path fill-rule="evenodd" clip-rule="evenodd"
    d="M8 9.6C8 8.64522 8.37928 7.72955 9.05442 7.05442C9.72955 6.37928 10.6452 6 11.6 6H31.2968L39.2 13.9032V38.4C39.2 39.3548 38.8207 40.2705 38.1456 40.9456C37.4705 41.6207 36.5548 42 35.6 42H11.6C10.6452 42 9.72955 41.6207 9.05442 40.9456C8.37928 40.2705 8 39.3548 8 38.4V9.6ZM14 20.4H10.4V32.4H12.8V27.6H14C14.9548 27.6 15.8705 27.2207 16.5456 26.5456C17.2207 25.8705 17.6 24.9548 17.6 24C17.6 23.0452 17.2207 22.1295 16.5456 21.4544C15.8705 20.7793 14.9548 20.4 14 20.4ZM23.6 20.4H20V32.4H23.6C24.5548 32.4 25.4705 32.0207 26.1456 31.3456C26.8207 30.6705 27.2 29.7548 27.2 28.8V24C27.2 23.0452 26.8207 22.1295 26.1456 21.4544C25.4705 20.7793 24.5548 20.4 23.6 20.4ZM29.6 32.4V20.4H36.8V22.8H32V25.2H34.4V27.6H32V32.4H29.6Z" />
</svg>