<svg width="48" height="48" viewBox="0 0 48 48" xmlns="http://www.w3.org/2000/svg">
  <path
    d="M28 6H13.6C12.6452 6 11.7295 6.37928 11.0544 7.05442C10.3793 7.72955 10 8.64522 10 9.6V38.4C10 39.3548 10.3793 40.2705 11.0544 40.9456C11.7295 41.6207 12.6452 42 13.6 42H35.2C36.1548 42 37.0705 41.6207 37.7456 40.9456C38.4207 40.2705 38.8 39.3548 38.8 38.4V16.8L28 6ZM19.279 33.8172C18.5122 34.4544 17.3476 34.755 15.9238 34.755C15.0688 34.755 14.4658 34.701 14.0554 34.647V27.4992C14.7914 27.3921 15.5347 27.3421 16.2784 27.3498C17.6608 27.3498 18.5572 27.5982 19.2574 28.1274C20.0134 28.689 20.4886 29.5854 20.4886 30.867C20.4886 32.262 19.981 33.2232 19.279 33.8172ZM24.661 34.8C22.501 34.8 21.2392 33.1692 21.2392 31.0956C21.2392 28.9158 22.6306 27.2868 24.7798 27.2868C27.0136 27.2868 28.234 28.959 28.234 30.9678C28.2322 33.3528 26.785 34.8 24.661 34.8ZM33.04 33.4284C33.535 33.4284 34.0858 33.3186 34.4116 33.1908L34.66 34.4742C34.3576 34.6254 33.6772 34.7874 32.7934 34.7874C30.2788 34.7874 28.9828 33.2232 28.9828 31.1496C28.9828 28.6674 30.7522 27.2868 32.9554 27.2868C33.8086 27.2868 34.4548 27.4596 34.7464 27.6108L34.4116 28.9176C33.9731 28.7375 33.5033 28.6457 33.0292 28.6476C31.7224 28.6476 30.7072 29.436 30.7072 31.056C30.7072 32.5122 31.5712 33.4284 33.04 33.4284ZM28 18.6H26.2V9.6L35.2 18.6H28Z" />
  <path
    d="M24.7348 28.5936C23.6242 28.5936 22.9762 29.6502 22.9762 31.065C22.9762 32.4888 23.644 33.495 24.7456 33.495C25.8562 33.495 26.4934 32.4366 26.4934 31.0218C26.4934 29.715 25.867 28.5936 24.7348 28.5936Z" />
  <path
    d="M16.4512 28.6134C16.0858 28.6134 15.8482 28.6458 15.7078 28.6782V33.4392C15.8482 33.4716 16.075 33.4716 16.2784 33.4716C17.7688 33.4824 18.739 32.6634 18.739 30.9246C18.7498 29.4126 17.866 28.6134 16.4512 28.6134Z" />
</svg>