<svg width="48" height="48" viewBox="0 0 48 48" xmlns="http://www.w3.org/2000/svg">
<path d="M41.8965 17.4282C42.1427 18.0697 41.9338 18.7933 41.4266 19.2633L38.1964 22.2025C38.2785 22.8216 38.3232 23.4557 38.3232 24.0973C38.3232 24.7388 38.2785 25.3729 38.1964 25.9921L41.4266 28.9313C41.9338 29.4013 42.1427 30.1249 41.8965 30.7664C41.5683 31.6541 41.1729 32.512 40.7253 33.3251L40.3747 33.9294C39.8824 34.75 39.3303 35.5258 38.7261 36.2643C38.2785 36.794 37.5549 36.9805 36.8984 36.7716L32.7433 35.4438C31.7436 36.2121 30.5724 36.8537 29.4609 37.346L28.5284 41.6056C28.3792 42.277 27.857 42.7544 27.1707 42.9335C26.1413 43.105 25.082 43.1946 23.9332 43.1946C22.9186 43.1946 21.8593 43.105 20.8298 42.9335C20.1435 42.7544 19.6213 42.277 19.4721 41.6056L18.5397 37.346C17.361 36.8537 16.2569 36.2121 15.2573 35.4438L11.1052 36.7716C10.4457 36.9805 9.71836 36.794 9.27674 36.2643C8.67174 35.5258 8.11971 34.75 7.62736 33.9294L7.27824 33.3251C6.82542 32.512 6.43154 31.6541 6.10107 30.7664C5.85937 30.1249 6.06302 29.4013 6.57477 28.9313L9.80191 25.9921C9.71985 25.3729 9.67733 24.7388 9.67733 24.0973C9.67733 23.4557 9.71985 22.8216 9.80191 22.2025L6.57477 19.2633C6.06302 18.7933 5.85937 18.0772 6.10107 17.4282C6.43154 16.5404 6.82617 15.6825 7.27824 14.8694L7.62661 14.2652C8.11971 13.4446 8.67174 12.6688 9.27674 11.934C9.71836 11.4006 10.4457 11.2156 11.1052 11.4259L15.2573 12.7508C16.2569 11.9795 17.361 11.3379 18.5397 10.8508L19.4721 6.59119C19.6213 5.91383 20.1435 5.37598 20.8298 5.26184C21.8593 5.08959 22.9186 5 24.0003 5C25.082 5 26.1413 5.08959 27.1707 5.26184C27.857 5.37598 28.3792 5.91383 28.5284 6.59119L29.4609 10.8508C30.5724 11.3379 31.7436 11.9795 32.7433 12.7508L36.8984 11.4259C37.5549 11.2156 38.2785 11.4006 38.7261 11.934C39.3303 12.6688 39.8824 13.4446 40.3747 14.2652L40.7253 14.8694C41.1729 15.6825 41.5683 16.5404 41.8965 17.4282ZM24.0003 30.0652C27.2976 30.0652 29.9682 27.3945 29.9682 24.0301C29.9682 20.8 27.2976 18.0622 24.0003 18.0622C20.703 18.0622 18.0324 20.8 18.0324 24.0301C18.0324 27.3945 20.703 30.0652 24.0003 30.0652Z"/>
</svg>
