<svg width="48" height="48" viewBox="0 0 48 48"  xmlns="http://www.w3.org/2000/svg">
<path fill-rule="evenodd" clip-rule="evenodd" d="M36.4445 22.2222C37.3415 22.2219 38.2055 22.5607 38.8633 23.1707C39.521 23.7806 39.9239 24.6166 39.9912 25.5111L40.0001 25.7778V36.4444C40.0003 37.3415 39.6616 38.2055 39.0516 38.8632C38.4417 39.5209 37.6057 39.9238 36.7112 39.9911L36.4445 40H29.3334C28.4364 40.0003 27.5724 39.6615 26.9146 39.0516C26.2569 38.4416 25.854 37.6056 25.7867 36.7111L25.7778 36.4444V25.7778C25.7776 24.8808 26.1163 24.0168 26.7263 23.359C27.3362 22.7013 28.1722 22.2984 29.0667 22.2311L29.3334 22.2222H36.4445ZM18.6667 29.3333C19.6097 29.3333 20.5141 29.7079 21.1809 30.3747C21.8477 31.0415 22.2223 31.9459 22.2223 32.8889V36.4444C22.2223 37.3874 21.8477 38.2918 21.1809 38.9586C20.5141 39.6254 19.6097 40 18.6667 40H11.5556C10.6126 40 9.70825 39.6254 9.04146 38.9586C8.37466 38.2918 8.00006 37.3874 8.00006 36.4444V32.8889C8.00006 31.9459 8.37466 31.0415 9.04146 30.3747C9.70825 29.7079 10.6126 29.3333 11.5556 29.3333H18.6667ZM18.6667 8C19.6097 8 20.5141 8.3746 21.1809 9.0414C21.8477 9.70819 22.2223 10.6126 22.2223 11.5556V22.2222C22.2223 23.1652 21.8477 24.0696 21.1809 24.7364C20.5141 25.4032 19.6097 25.7778 18.6667 25.7778H11.5556C10.6126 25.7778 9.70825 25.4032 9.04146 24.7364C8.37466 24.0696 8.00006 23.1652 8.00006 22.2222V11.5556C8.00006 10.6126 8.37466 9.70819 9.04146 9.0414C9.70825 8.3746 10.6126 8 11.5556 8H18.6667ZM36.4445 8C37.3875 8 38.2919 8.3746 38.9587 9.0414C39.6255 9.70819 40.0001 10.6126 40.0001 11.5556V15.1111C40.0001 16.0541 39.6255 16.9585 38.9587 17.6253C38.2919 18.2921 37.3875 18.6667 36.4445 18.6667H29.3334C28.3904 18.6667 27.486 18.2921 26.8192 17.6253C26.1524 16.9585 25.7778 16.0541 25.7778 15.1111V11.5556C25.7778 10.6126 26.1524 9.70819 26.8192 9.0414C27.486 8.3746 28.3904 8 29.3334 8H36.4445Z" />
</svg>
