<svg width="48" height="48" viewBox="0 0 48 48" xmlns="http://www.w3.org/2000/svg">
  <path fill-rule="evenodd" clip-rule="evenodd"
    d="M21.3846 11.6923C21.3846 12.1772 21.2891 12.6573 21.1036 13.1053C20.918 13.5533 20.646 13.9603 20.3032 14.3032C19.9603 14.646 19.5533 14.918 19.1053 15.1036C18.6573 15.2891 18.1772 15.3846 17.6923 15.3846C17.2074 15.3846 16.7273 15.2891 16.2793 15.1036C15.8314 14.918 15.4243 14.646 15.0815 14.3032C14.7386 13.9603 14.4666 13.5533 14.2811 13.1053C14.0955 12.6573 14 12.1772 14 11.6923C14 10.713 14.389 9.77389 15.0815 9.08145C15.7739 8.38901 16.713 8 17.6923 8C18.6716 8 19.6107 8.38901 20.3032 9.08145C20.9956 9.77389 21.3846 10.713 21.3846 11.6923ZM17.6923 27.6923C18.6716 27.6923 19.6107 27.3033 20.3032 26.6109C20.9956 25.9184 21.3846 24.9793 21.3846 24C21.3846 23.0207 20.9956 22.0816 20.3032 21.3891C19.6107 20.6967 18.6716 20.3077 17.6923 20.3077C16.713 20.3077 15.7739 20.6967 15.0815 21.3891C14.389 22.0816 14 23.0207 14 24C14 24.9793 14.389 25.9184 15.0815 26.6109C15.7739 27.3033 16.713 27.6923 17.6923 27.6923ZM30 27.6923C30.9793 27.6923 31.9184 27.3033 32.6109 26.6109C33.3033 25.9184 33.6923 24.9793 33.6923 24C33.6923 23.0207 33.3033 22.0816 32.6109 21.3891C31.9184 20.6967 30.9793 20.3077 30 20.3077C29.0207 20.3077 28.0816 20.6967 27.3891 21.3891C26.6967 22.0816 26.3077 23.0207 26.3077 24C26.3077 24.9793 26.6967 25.9184 27.3891 26.6109C28.0816 27.3033 29.0207 27.6923 30 27.6923ZM30 15.3846C30.9793 15.3846 31.9184 14.9956 32.6109 14.3032C33.3033 13.6107 33.6923 12.6716 33.6923 11.6923C33.6923 10.713 33.3033 9.77389 32.6109 9.08145C31.9184 8.38901 30.9793 8 30 8C29.0207 8 28.0816 8.38901 27.3891 9.08145C26.6967 9.77389 26.3077 10.713 26.3077 11.6923C26.3077 12.6716 26.6967 13.6107 27.3891 14.3032C28.0816 14.9956 29.0207 15.3846 30 15.3846ZM21.3846 36.3077C21.3846 36.7926 21.2891 37.2727 21.1036 37.7207C20.918 38.1686 20.646 38.5757 20.3032 38.9185C19.9603 39.2614 19.5533 39.5334 19.1053 39.7189C18.6573 39.9045 18.1772 40 17.6923 40C17.2074 40 16.7273 39.9045 16.2793 39.7189C15.8314 39.5334 15.4243 39.2614 15.0815 38.9185C14.7386 38.5757 14.4666 38.1686 14.2811 37.7207C14.0955 37.2727 14 36.7926 14 36.3077C14 35.3284 14.389 34.3893 15.0815 33.6968C15.7739 33.0044 16.713 32.6154 17.6923 32.6154C18.6716 32.6154 19.6107 33.0044 20.3032 33.6968C20.9956 34.3893 21.3846 35.3284 21.3846 36.3077ZM30 40C30.9793 40 31.9184 39.611 32.6109 38.9185C33.3033 38.2261 33.6923 37.287 33.6923 36.3077C33.6923 35.3284 33.3033 34.3893 32.6109 33.6968C31.9184 33.0044 30.9793 32.6154 30 32.6154C29.0207 32.6154 28.0816 33.0044 27.3891 33.6968C26.6967 34.3893 26.3077 35.3284 26.3077 36.3077C26.3077 37.287 26.6967 38.2261 27.3891 38.9185C28.0816 39.611 29.0207 40 30 40Z" />
</svg>