<svg width="48" height="48" viewBox="0 0 48 48" xmlns="http://www.w3.org/2000/svg">
<path d="M9.59999 24C8.18879 24 6.87359 24.4056 5.76239 25.1064L11.1624 12.5088C11.5324 11.6456 12.1476 10.9098 12.9317 10.3928C13.7158 9.87576 14.6344 9.60011 15.5736 9.60001H32.6232C34.404 9.60001 36.0552 10.584 36.8544 12.2112C38.16 14.8656 40.5264 19.908 42.4536 25.248C41.2583 24.4344 39.8458 23.9996 38.4 24H9.59999ZM38.4 26.4C39.673 26.4 40.8939 26.9057 41.7941 27.8059C42.6943 28.7061 43.2 29.927 43.2 31.2V33.6C43.2 34.873 42.6943 36.0939 41.7941 36.9941C40.8939 37.8943 39.673 38.4 38.4 38.4H9.56879C8.30116 38.3918 7.08826 37.8824 6.19483 36.9831C5.30139 36.0839 4.79996 34.8677 4.79999 33.6V31.2C4.79999 29.927 5.3057 28.7061 6.20588 27.8059C7.10605 26.9057 8.32695 26.4 9.59999 26.4H38.4ZM37.2 34.2C37.6774 34.2 38.1352 34.0104 38.4728 33.6728C38.8103 33.3352 39 32.8774 39 32.4C39 31.9226 38.8103 31.4648 38.4728 31.1272C38.1352 30.7896 37.6774 30.6 37.2 30.6C36.7226 30.6 36.2648 30.7896 35.9272 31.1272C35.5896 31.4648 35.4 31.9226 35.4 32.4C35.4 32.8774 35.5896 33.3352 35.9272 33.6728C36.2648 34.0104 36.7226 34.2 37.2 34.2Z"/>
</svg>
