<svg width="48" height="48" viewBox="0 0 48 48"  xmlns="http://www.w3.org/2000/svg">
<path d="M34.5 9H13.5C13.3674 9 13.2402 9.05268 13.1464 9.14645C13.0527 9.24021 13 9.36739 13 9.5V10.7C13.0099 11.7472 13.2734 12.7763 13.768 13.6994C14.2626 14.6224 14.9736 15.4118 15.84 16L20 18.96C20.84 19.516 21.54 20.26 22.04 21.138C22.5548 22.0039 22.8266 22.9926 22.8266 24C22.8266 25.0074 22.5548 25.9961 22.04 26.862C21.54 27.738 20.84 28.484 20 29.04L15.84 32C14.9736 32.5882 14.2626 33.3776 13.768 34.3006C13.2734 35.2237 13.0099 36.2528 13 37.3V38.5C13 38.6326 13.0527 38.7598 13.1464 38.8536C13.2402 38.9473 13.3674 39 13.5 39H34.5C34.6326 39 34.7598 38.9473 34.8536 38.8536C34.9473 38.7598 35 38.6326 35 38.5V37.3C34.9901 36.2528 34.7266 35.2237 34.232 34.3006C33.7374 33.3776 33.0264 32.5882 32.16 32L28 29.04C27.1579 28.4849 26.4589 27.7386 25.96 26.862C25.4452 25.9961 25.1734 25.0074 25.1734 24C25.1734 22.9926 25.4452 22.0039 25.96 21.138C26.46 20.262 27.16 19.516 28 18.96L32.16 16C33.0264 15.4118 33.7374 14.6224 34.232 13.6994C34.7266 12.7763 34.9901 11.7472 35 10.7V9.5C35 9.36739 34.9473 9.24021 34.8536 9.14645C34.7598 9.05268 34.6326 9 34.5 9Z"/>
</svg>
