<svg width="48" height="48" viewBox="0 0 48 48" fill="none" xmlns="http://www.w3.org/2000/svg">
<path d="M20.616 17.5257C19.5869 16.5463 18.2207 16 16.8 16C15.3793 16 14.0131 16.5463 12.984 17.5257L6 24.5097V33.7617C6.00475 35.1924 6.5752 36.5632 7.58687 37.5749C8.59854 38.5865 9.96929 39.157 11.4 39.1617H36.6C37.3261 39.1613 38.0447 39.0144 38.7127 38.7298C39.3808 38.4453 39.9846 38.029 40.488 37.5057L20.616 17.5257Z" fill="black"/>
<path opacity="0.25" d="M42 28.1061L35.0178 21.1239C34.0028 20.116 32.6304 19.5503 31.2 19.5503C29.7695 19.5503 28.3972 20.116 27.3822 21.1239L25.7838 22.7223L40.4808 37.4985C41.4564 36.4995 42.0018 35.1585 42 33.7617V28.1061Z" fill="black"/>
</svg>
