<svg width="48" height="48" viewBox="0 0 48 48" fill="none" xmlns="http://www.w3.org/2000/svg">
<path d="M38 6H10C7.8 6 6 7.8 6 10V38C6 40.2 7.8 42 10 42H38C40.2 42 42 40.2 42 38V10C42 7.8 40.2 6 38 6ZM16 34C14.9 34 14 33.1 14 32V16C14 14.9 14.9 14 16 14C17.1 14 18 14.9 18 16V32C18 33.1 17.1 34 16 34ZM24 24C22.9 24 22 23.1 22 22V16C22 14.9 22.9 14 24 14C25.1 14 26 14.9 26 16V22C26 23.1 25.1 24 24 24ZM32 30C30.9 30 30 29.1 30 28V16C30 14.9 30.9 14 32 14C33.1 14 34 14.9 34 16V28C34 29.1 33.1 30 32 30Z" fill="black"/>
</svg>
