<svg width="48" height="48" viewBox="0 0 48 48" xmlns="http://www.w3.org/2000/svg">
<path d="M30.357 38.5714C31.6982 38.5714 32.7855 37.4841 32.7855 36.1428C32.7855 34.8016 31.6982 33.7143 30.357 33.7143C29.0157 33.7143 27.9284 34.8016 27.9284 36.1428C27.9284 37.4841 29.0157 38.5714 30.357 38.5714Z" />
<path d="M30.357 14.2857C31.6982 14.2857 32.7855 13.1984 32.7855 11.8571C32.7855 10.5159 31.6982 9.42857 30.357 9.42857C29.0157 9.42857 27.9284 10.5159 27.9284 11.8571C27.9284 13.1984 29.0157 14.2857 30.357 14.2857Z" />
<path d="M9.71415 26.4286C11.0554 26.4286 12.1427 25.3413 12.1427 24C12.1427 22.6587 11.0554 21.5714 9.71415 21.5714C8.37289 21.5714 7.28558 22.6587 7.28558 24C7.28558 25.3413 8.37289 26.4286 9.71415 26.4286Z" />
<path d="M38.857 19.1429C37.7831 19.146 36.7406 19.5054 35.8928 20.1646C35.045 20.8239 34.4399 21.7457 34.1722 22.7857H28.9702C28.7983 22.1009 28.4778 21.4623 28.0316 20.9151C27.5854 20.368 27.0243 19.9256 26.3881 19.6194C25.7519 19.3132 25.0562 19.1506 24.3501 19.1431C23.6441 19.1357 22.9451 19.2836 22.3026 19.5764L18.4448 14.7556C19.0796 13.9224 19.425 12.9047 19.4284 11.8571C19.4284 10.8965 19.1435 9.95741 18.6098 9.15866C18.0761 8.35991 17.3175 7.73736 16.43 7.36973C15.5425 7.0021 14.5659 6.90592 13.6237 7.09333C12.6815 7.28074 11.816 7.74334 11.1367 8.42263C10.4575 9.10191 9.99486 9.96737 9.80744 10.9096C9.62003 11.8518 9.71622 12.8284 10.0838 13.7159C10.4515 14.6034 11.074 15.362 11.8728 15.8957C12.6715 16.4294 13.6106 16.7143 14.5713 16.7143C15.2558 16.7112 15.932 16.5635 16.5554 16.2808L20.412 21.1015C19.7745 21.9333 19.429 22.952 19.429 24C19.429 25.048 19.7745 26.0667 20.412 26.8985L16.5554 31.7192C15.932 31.4365 15.2558 31.2888 14.5713 31.2857C13.6106 31.2857 12.6715 31.5706 11.8728 32.1043C11.074 32.638 10.4515 33.3966 10.0838 34.2841C9.71622 35.1716 9.62003 36.1482 9.80744 37.0904C9.99486 38.0326 10.4575 38.8981 11.1367 39.5774C11.816 40.2566 12.6815 40.7192 13.6237 40.9067C14.5659 41.0941 15.5425 40.9979 16.43 40.6303C17.3175 40.2626 18.0761 39.6401 18.6098 38.8413C19.1435 38.0426 19.4284 37.1035 19.4284 36.1428C19.425 35.0953 19.0796 34.0776 18.4448 33.2444L22.3014 28.4236C22.944 28.7166 23.6431 28.8647 24.3492 28.8574C25.0554 28.85 25.7513 28.6875 26.3877 28.3813C27.024 28.075 27.5852 27.6326 28.0315 27.0853C28.4778 26.538 28.7983 25.8992 28.9702 25.2143H34.1722C34.4009 26.0917 34.871 26.8874 35.5292 27.511C36.1873 28.1347 37.0071 28.5613 37.8956 28.7424C38.784 28.9235 39.7054 28.8519 40.5552 28.5357C41.4049 28.2195 42.149 27.6713 42.7029 26.9535C43.2568 26.2356 43.5983 25.3768 43.6887 24.4747C43.779 23.5725 43.6146 22.663 43.2141 21.8496C42.8135 21.0362 42.1929 20.3513 41.4227 19.8729C40.6526 19.3944 39.7637 19.1415 38.857 19.1429ZM12.1427 11.8571C12.1427 11.3768 12.2851 10.9073 12.552 10.5079C12.8188 10.1085 13.1981 9.79725 13.6419 9.61344C14.0856 9.42962 14.5739 9.38153 15.045 9.47524C15.5161 9.56894 15.9489 9.80024 16.2885 10.1399C16.6282 10.4795 16.8595 10.9123 16.9532 11.3834C17.0469 11.8544 16.9988 12.3428 16.815 12.7865C16.6311 13.2303 16.3199 13.6096 15.9205 13.8764C15.5211 14.1433 15.0516 14.2857 14.5713 14.2857C13.9272 14.2857 13.3094 14.0298 12.854 13.5744C12.3986 13.119 12.1427 12.5012 12.1427 11.8571ZM14.5713 38.5714C14.0909 38.5714 13.6214 38.429 13.222 38.1621C12.8226 37.8953 12.5114 37.516 12.3275 37.0722C12.1437 36.6285 12.0956 36.1402 12.1893 35.6691C12.2831 35.198 12.5144 34.7652 12.854 34.4256C13.1936 34.0859 13.6264 33.8546 14.0975 33.7609C14.5686 33.6672 15.0569 33.7153 15.5006 33.8991C15.9444 34.083 16.3237 34.3942 16.5905 34.7936C16.8574 35.193 16.9998 35.6625 16.9998 36.1428C16.9998 36.7869 16.744 37.4047 16.2885 37.8601C15.8331 38.3156 15.2154 38.5714 14.5713 38.5714ZM24.2855 26.4286C23.8052 26.4286 23.3357 26.2861 22.9363 26.0193C22.5369 25.7524 22.2256 25.3731 22.0418 24.9294C21.858 24.4856 21.8099 23.9973 21.9036 23.5262C21.9973 23.0551 22.2286 22.6224 22.5683 22.2827C22.9079 21.9431 23.3406 21.7118 23.8117 21.6181C24.2828 21.5244 24.7711 21.5725 25.2149 21.7563C25.6587 21.9401 26.038 22.2514 26.3048 22.6508C26.5717 23.0501 26.7141 23.5197 26.7141 24C26.7141 24.6441 26.4582 25.2618 26.0028 25.7173C25.5473 26.1727 24.9296 26.4286 24.2855 26.4286ZM38.857 26.4286C38.3766 26.4286 37.9071 26.2861 37.5077 26.0193C37.1083 25.7524 36.7971 25.3731 36.6133 24.9294C36.4294 24.4856 36.3813 23.9973 36.475 23.5262C36.5688 23.0551 36.8001 22.6224 37.1397 22.2827C37.4793 21.9431 37.9121 21.7118 38.3832 21.6181C38.8543 21.5244 39.3426 21.5725 39.7863 21.7563C40.2301 21.9401 40.6094 22.2514 40.8762 22.6508C41.1431 23.0501 41.2855 23.5197 41.2855 24C41.2855 24.6441 41.0297 25.2618 40.5742 25.7173C40.1188 26.1727 39.5011 26.4286 38.857 26.4286Z" />
</svg>
