<svg width="48" height="48" viewBox="0 0 48 48" xmlns="http://www.w3.org/2000/svg">
<path d="M12.7499 25.35C13.4955 25.35 14.1 25.9544 14.1 26.7C14.1 28.3546 14.426 29.993 15.0592 31.5217C16.0131 33.8239 17.6281 35.7917 19.7001 37.1762C21.7721 38.5607 24.2081 39.2998 26.7001 39.3C27.4457 39.3001 28.05 39.9045 28.05 40.6501C28.0499 41.3957 27.4454 42.0001 26.6999 42C23.6739 41.9997 20.716 41.1023 18.2 39.4211C15.684 37.74 13.723 35.3506 12.5648 32.5551C11.7959 30.6988 11.4 28.7092 11.4 26.7C11.4 25.9545 12.0044 25.35 12.7499 25.35Z" />
<path d="M40.6501 19.95C41.3956 19.95 42.0001 20.5545 42 21.3001C41.9997 25.3578 40.3879 29.2493 37.5189 32.1187L37.5187 32.1189C34.6493 34.9879 30.7578 36.5998 26.7001 36.6C25.9545 36.6 25.35 35.9956 25.35 35.2501C25.3499 34.5045 25.9543 33.9 26.6999 33.9C30.0417 33.8998 33.2466 32.5723 35.6097 30.2095C37.9724 27.8464 39.2998 24.6416 39.3 21.2999C39.3001 20.5543 39.9045 19.9499 40.6501 19.95Z" />
<path d="M21.3 11.4C22.0456 11.4 22.65 12.0044 22.65 12.75C22.65 13.4956 22.0456 14.1 21.3 14.1C17.9583 14.1 14.7534 15.4275 12.3905 17.7905C10.0275 20.1534 8.7 23.3583 8.7 26.7C8.7 27.4456 8.09558 28.05 7.35 28.05C6.60442 28.05 6 27.4456 6 26.7C6 22.6422 7.61196 18.7506 10.4813 15.8813C13.3506 13.012 17.2422 11.4 21.3 11.4Z" />
<path d="M21.2999 6C24.326 5.99989 27.2843 6.89717 29.8004 8.57839C32.2772 10.2333 34.2161 12.5747 35.3806 15.3143L35.4355 15.4451C36.2042 17.3013 36.5999 19.2908 36.6 21.3C36.6 22.0455 35.9956 22.6499 35.2501 22.65C34.5045 22.65 33.9 22.0456 33.9 21.3C33.9 19.6454 33.574 18.0069 32.9409 16.4782C31.9873 14.1758 30.3724 12.2079 28.3004 10.8233C26.2283 9.43882 23.7921 8.69991 21.3 8.7C20.5545 8.70002 19.95 8.09563 19.95 7.35005C19.9499 6.60447 20.5543 6.00004 21.2999 6Z" />
</svg>
