<svg width="48" height="48" viewBox="0 0 48 48" xmlns="http://www.w3.org/2000/svg">
  <path
    d="M28.9171 5.59735L29.6364 7.85823C29.8594 8.5459 30.2369 9.17074 30.7387 9.68281C31.2404 10.1949 31.8525 10.58 32.5259 10.8073L34.7417 11.5419L34.7851 11.5546C34.9558 11.616 35.1037 11.73 35.2083 11.8808C35.3129 12.0317 35.3691 12.212 35.3691 12.3969C35.3691 12.5817 35.3129 12.762 35.2083 12.9129C35.1037 13.0638 34.9558 13.1778 34.7851 13.2392L32.5714 13.9738C31.8976 14.2008 31.2851 14.5858 30.783 15.0979C30.2809 15.61 29.9031 16.235 29.6798 16.9229L28.9605 19.1816C28.9004 19.356 28.7888 19.507 28.6411 19.6139C28.4933 19.7207 28.3168 19.7781 28.1358 19.7781C27.9548 19.7781 27.7782 19.7207 27.6305 19.6139C27.4828 19.507 27.3712 19.356 27.3111 19.1816L26.5897 16.9229C26.3682 16.2334 25.9916 15.6066 25.4901 15.0926C24.9883 14.5777 24.3753 14.1901 23.7002 13.9611L21.4865 13.2265C21.3158 13.1651 21.1679 13.0511 21.0633 12.9003C20.9587 12.7494 20.9025 12.5691 20.9025 12.3842C20.9025 12.1993 20.9587 12.019 21.0633 11.8682C21.1679 11.7173 21.3158 11.6033 21.4865 11.5419L23.7002 10.8073C24.3656 10.5741 24.969 10.1864 25.4629 9.67467C25.9567 9.16294 26.3276 8.54116 26.5463 7.85823L27.2656 5.59946C27.3253 5.42435 27.4368 5.27256 27.5848 5.16514C27.7328 5.05772 27.9098 5 28.0914 5C28.2729 5 28.4499 5.05772 28.5979 5.16514C28.7459 5.27256 28.8574 5.42224 28.9171 5.59735ZM39.0554 22.3418L37.4721 21.8183C36.9917 21.6542 36.5552 21.3783 36.1972 21.0123C35.8392 20.6463 35.5694 20.2002 35.4093 19.7094L34.8926 18.0966C34.8498 17.9719 34.7701 17.8638 34.6646 17.7874C34.559 17.711 34.4329 17.6699 34.3035 17.6699C34.1741 17.6699 34.048 17.711 33.9424 17.7874C33.8369 17.8638 33.7572 17.9719 33.7144 18.0966L33.2018 19.7094C33.0446 20.1971 32.7793 20.6411 32.4265 21.0069C32.0737 21.3727 31.643 21.6503 31.168 21.8183L29.5868 22.3418C29.4656 22.3864 29.3609 22.4682 29.2869 22.5758C29.2129 22.6835 29.1731 22.8119 29.1731 22.9434C29.1731 23.075 29.2129 23.2033 29.2869 23.311C29.3609 23.4186 29.4656 23.5004 29.5868 23.545L31.168 24.0707C31.6498 24.2348 32.0876 24.5115 32.4464 24.8786C32.8052 25.2458 33.0752 25.6935 33.2349 26.1859L33.7475 27.7987C33.7903 27.9234 33.87 28.0314 33.9755 28.1079C34.081 28.1843 34.2072 28.2254 34.3366 28.2254C34.4659 28.2254 34.5921 28.1843 34.6976 28.1079C34.8032 28.0314 34.8828 27.9234 34.9256 27.7987L35.4403 26.1859C35.6007 25.6948 35.8707 25.2486 36.2291 24.8826C36.5875 24.5166 37.0244 24.2408 37.5052 24.077L39.0864 23.5535C39.2075 23.5088 39.3122 23.4271 39.3863 23.3194C39.4603 23.2118 39.5 23.0834 39.5 22.9519C39.5 22.8203 39.4603 22.692 39.3863 22.5843C39.3122 22.4766 39.2075 22.3949 39.0864 22.3502L39.0554 22.3418ZM19.0165 11.335C18.8944 11.67 18.8328 12.0247 18.8346 12.3821C18.8346 13.0154 19.0207 13.6086 19.372 14.1152C19.7234 14.6219 20.2195 15.0251 20.8395 15.2362L23.0346 15.975C23.3447 16.0827 23.634 16.2516 24.0061 16.5893C24.2334 16.8215 24.4195 17.096 24.6055 17.5836L25.3186 19.779H15.7342C15.4601 19.779 15.1973 19.8902 15.0035 20.0882C14.8097 20.2861 14.7008 20.5546 14.7008 20.8345C14.7008 21.1145 14.8097 21.3829 15.0035 21.5809C15.1973 21.7788 15.4601 21.89 15.7342 21.89H26.0689C26.2048 21.89 26.3394 21.8626 26.465 21.8093C26.5905 21.7561 26.7046 21.678 26.8006 21.5797C26.9797 21.6726 27.1657 21.743 27.3586 21.7908C27.1933 22.1497 27.1106 22.5529 27.1106 22.954C27.1106 23.5239 27.276 24.0749 27.6067 24.5414C27.9374 25.008 28.3921 25.3436 28.9502 25.5547L30.5231 26.0825C30.6884 26.1458 30.8538 26.2513 30.9778 26.378C31.1225 26.5068 31.2052 26.6757 31.2672 26.8445L31.8046 28.5376C32.0113 29.0653 32.342 29.5086 32.7988 29.8464C32.9586 29.959 33.1267 30.0518 33.3031 30.125V32.445H26.0689C25.2466 32.445 24.458 32.7786 23.8766 33.3725C23.2951 33.9663 22.9685 34.7717 22.9685 35.6115V43H11.6004C10.7781 43 9.98952 42.6664 9.40808 42.0726C8.82665 41.4787 8.5 40.6733 8.5 39.8335V14.5015C8.5 13.6617 8.82665 12.8563 9.40808 12.2625C9.98952 11.6687 10.7781 11.335 11.6004 11.335H12.6339V10.2795C12.6339 9.99961 12.7427 9.73114 12.9365 9.53319C13.1304 9.33525 13.3932 9.22405 13.6673 9.22405C13.9414 9.22405 14.2043 9.33525 14.3981 9.53319C14.5919 9.73114 14.7008 9.99961 14.7008 10.2795V11.335H19.0165ZM27.1023 27.1675C27.1023 26.8876 26.9934 26.6191 26.7996 26.4212C26.6058 26.2232 26.343 26.112 26.0689 26.112H15.7342C15.4601 26.112 15.1973 26.2232 15.0035 26.4212C14.8097 26.6191 14.7008 26.8876 14.7008 27.1675C14.7008 27.4475 14.8097 27.7159 15.0035 27.9139C15.1973 28.1118 15.4601 28.223 15.7342 28.223H26.0689C26.343 28.223 26.6058 28.1118 26.7996 27.9139C26.9934 27.7159 27.1023 27.4475 27.1023 27.1675ZM15.7342 32.445C15.4601 32.445 15.1973 32.5562 15.0035 32.7542C14.8097 32.9521 14.7008 33.2206 14.7008 33.5005C14.7008 33.7804 14.8097 34.0489 15.0035 34.2469C15.1973 34.4448 15.4601 34.556 15.7342 34.556H19.8681C20.1422 34.556 20.405 34.4448 20.5989 34.2469C20.7927 34.0489 20.9016 33.7804 20.9016 33.5005C20.9016 33.2206 20.7927 32.9521 20.5989 32.7542C20.405 32.5562 20.1422 32.445 19.8681 32.445H15.7342ZM26.0689 34.556H32.6624C32.5797 34.6644 32.4901 34.7671 32.3937 34.8642L25.3372 42.0733C25.2407 42.1718 25.1401 42.2619 25.0354 42.3435V35.6115C25.0354 35.3316 25.1443 35.0631 25.3381 34.8652C25.5319 34.6672 25.7948 34.556 26.0689 34.556Z" />
</svg>