<svg width="48" height="48" viewBox="0 0 48 48" xmlns="http://www.w3.org/2000/svg">
  <g clip-path="url(#clip0_4475_4123)">
    <path
      d="M33.3072 0.676814L34.1424 3.24721C34.4014 4.02903 34.8397 4.73941 35.4223 5.32158C36.0049 5.90375 36.7156 6.34156 37.4976 6.60001L40.0704 7.43521L40.1208 7.44961C40.319 7.5194 40.4907 7.649 40.6122 7.82052C40.7336 7.99205 40.7989 8.19704 40.7989 8.40721C40.7989 8.61739 40.7336 8.82238 40.6122 8.9939C40.4907 9.16543 40.319 9.29503 40.1208 9.36481L37.5504 10.2C36.7679 10.4581 36.0568 10.8958 35.4737 11.478C34.8907 12.0602 34.452 12.7707 34.1928 13.5528L33.3576 16.1208C33.2878 16.3191 33.1582 16.4908 32.9867 16.6122C32.8151 16.7337 32.6102 16.7989 32.4 16.7989C32.1898 16.7989 31.9848 16.7337 31.8133 16.6122C31.6418 16.4908 31.5122 16.3191 31.4424 16.1208L30.6048 13.5528C30.3476 12.769 29.9103 12.0563 29.328 11.472C28.7453 10.8865 28.0335 10.4459 27.2496 10.1856L24.6792 9.35041C24.4809 9.28063 24.3092 9.15103 24.1878 8.9795C24.0663 8.80798 24.0011 8.60299 24.0011 8.39281C24.0011 8.18264 24.0663 7.97765 24.1878 7.80612C24.3092 7.6346 24.4809 7.505 24.6792 7.43521L27.2496 6.60001C28.0223 6.3349 28.7229 5.89411 29.2963 5.31232C29.8698 4.73054 30.3004 4.02364 30.5544 3.24721L31.3896 0.679214C31.4589 0.480131 31.5884 0.307551 31.7602 0.185424C31.932 0.0632971 32.1376 -0.00231934 32.3484 -0.00231934C32.5592 -0.00231934 32.7647 0.0632971 32.9365 0.185424C33.1084 0.307551 33.2379 0.477731 33.3072 0.676814ZM45.0792 19.7136L43.2408 19.1184C42.6829 18.9319 42.1761 18.6182 41.7604 18.2021C41.3447 17.786 41.0315 17.2788 40.8456 16.7208L40.2456 14.8872C40.1959 14.7455 40.1034 14.6226 39.9808 14.5357C39.8583 14.4488 39.7118 14.4022 39.5616 14.4022C39.4114 14.4022 39.2649 14.4488 39.1423 14.5357C39.0198 14.6226 38.9273 14.7455 38.8776 14.8872L38.2824 16.7208C38.0998 17.2753 37.7917 17.7801 37.3821 18.196C36.9725 18.6118 36.4724 18.9275 35.9208 19.1184L34.0848 19.7136C33.9441 19.7644 33.8225 19.8573 33.7366 19.9797C33.6506 20.1021 33.6045 20.248 33.6045 20.3976C33.6045 20.5472 33.6506 20.6931 33.7366 20.8155C33.8225 20.9379 33.9441 21.0308 34.0848 21.0816L35.9208 21.6792C36.4803 21.8658 36.9885 22.1803 37.4052 22.5978C37.8218 23.0153 38.1353 23.5241 38.3208 24.084L38.916 25.9176C38.9657 26.0594 39.0582 26.1822 39.1807 26.2691C39.3032 26.356 39.4498 26.4027 39.6 26.4027C39.7502 26.4027 39.8967 26.356 40.0192 26.2691C40.1418 26.1822 40.2343 26.0594 40.284 25.9176L40.8816 24.084C41.0678 23.5257 41.3813 23.0184 41.7975 22.6023C42.2136 22.1862 42.7209 21.8726 43.2792 21.6864L45.1152 21.0912C45.2559 21.0404 45.3775 20.9475 45.4634 20.8251C45.5494 20.7027 45.5955 20.5568 45.5955 20.4072C45.5955 20.2577 45.5494 20.1117 45.4634 19.9893C45.3775 19.8669 45.2559 19.774 45.1152 19.7232L45.0792 19.7136ZM21.8112 7.20001C21.6694 7.58078 21.5978 7.98411 21.6 8.39041C21.6 9.11041 21.816 9.78481 22.224 10.3608C22.632 10.9368 23.208 11.3952 23.928 11.6352L26.4768 12.4752C26.8368 12.5976 27.1728 12.7896 27.6048 13.1736C27.8688 13.4376 28.0848 13.7496 28.3008 14.304L29.1288 16.8H18C17.6817 16.8 17.3765 16.9264 17.1514 17.1515C16.9264 17.3765 16.8 17.6818 16.8 18C16.8 18.3183 16.9264 18.6235 17.1514 18.8485C17.3765 19.0736 17.6817 19.2 18 19.2H30C30.1578 19.2 30.3141 19.1688 30.4599 19.1083C30.6057 19.0477 30.7381 18.959 30.8496 18.8472C31.0576 18.9528 31.2736 19.0328 31.4976 19.0872C31.3056 19.4952 31.2096 19.9536 31.2096 20.4096C31.2096 21.0576 31.4016 21.684 31.7856 22.2144C32.1696 22.7448 32.6976 23.1264 33.3456 23.3664L35.172 23.9664C35.364 24.0384 35.556 24.1584 35.7 24.3024C35.868 24.4488 35.964 24.6408 36.036 24.8328L36.66 26.7576C36.9 27.3576 37.284 27.8616 37.8144 28.2456C38 28.3736 38.1952 28.4792 38.4 28.5624V31.2H30C29.0452 31.2 28.1295 31.5793 27.4544 32.2544C26.7793 32.9296 26.4 33.8452 26.4 34.8V43.2H13.2C12.2452 43.2 11.3295 42.8207 10.6544 42.1456C9.97926 41.4705 9.59998 40.5548 9.59998 39.6V10.8C9.59998 9.84524 9.97926 8.92956 10.6544 8.25443C11.3295 7.5793 12.2452 7.20001 13.2 7.20001H14.4V6.00001C14.4 5.68175 14.5264 5.37653 14.7514 5.15149C14.9765 4.92644 15.2817 4.80001 15.6 4.80001C15.9182 4.80001 16.2235 4.92644 16.4485 5.15149C16.6735 5.37653 16.8 5.68175 16.8 6.00001V7.20001H21.8112ZM31.2 25.2C31.2 24.8818 31.0735 24.5765 30.8485 24.3515C30.6235 24.1264 30.3182 24 30 24H18C17.6817 24 17.3765 24.1264 17.1514 24.3515C16.9264 24.5765 16.8 24.8818 16.8 25.2C16.8 25.5183 16.9264 25.8235 17.1514 26.0485C17.3765 26.2736 17.6817 26.4 18 26.4H30C30.3182 26.4 30.6235 26.2736 30.8485 26.0485C31.0735 25.8235 31.2 25.5183 31.2 25.2ZM18 31.2C17.6817 31.2 17.3765 31.3264 17.1514 31.5515C16.9264 31.7765 16.8 32.0818 16.8 32.4C16.8 32.7183 16.9264 33.0235 17.1514 33.2485C17.3765 33.4736 17.6817 33.6 18 33.6H22.8C23.1182 33.6 23.4235 33.4736 23.6485 33.2485C23.8735 33.0235 24 32.7183 24 32.4C24 32.0818 23.8735 31.7765 23.6485 31.5515C23.4235 31.3264 23.1182 31.2 22.8 31.2H18ZM30 33.6H37.656C37.56 33.7232 37.456 33.84 37.344 33.9504L29.1504 42.1464C29.0384 42.2584 28.9216 42.3608 28.8 42.4536V34.8C28.8 34.4818 28.9264 34.1765 29.1514 33.9515C29.3765 33.7264 29.6817 33.6 30 33.6Z" />
  </g>
  <defs>
    <clipPath id="clip0_4475_4123">
      <rect width="48" height="48" fill="white" />
    </clipPath>
  </defs>
</svg>