<svg width="48" height="48" viewBox="0 0 48 48" xmlns="http://www.w3.org/2000/svg">
  <path
    d="M28.0345 10.9299L36.5801 19.4772C37.0808 19.9779 37.4237 20.6144 37.5661 21.308C37.7086 22.0016 37.6444 22.7217 37.3814 23.3792L33.1032 34.0756C32.8632 34.6744 32.4675 35.1981 31.957 35.5925C31.4465 35.9869 30.8398 36.2377 30.1998 36.3188L21.0121 37.4674C20.7757 37.4952 20.5285 37.529 20.2704 37.5687L19.4672 37.699L19.0475 37.775L17.7397 38.0282L16.8442 38.2182L15.4965 38.5221L13.769 38.9345L10.9614 39.6509L9.79284 39.9656C9.49794 40.0467 9.18739 40.0525 8.88968 39.9824C8.59197 39.9123 8.31662 39.7686 8.08888 39.5644C7.86114 39.3603 7.6883 39.1022 7.58619 38.8139C7.48409 38.5256 7.456 38.2162 7.5045 37.9143L7.566 37.6502L8.09965 35.6386L8.57722 33.7428L8.98966 32.0152L9.29176 30.6675L9.4817 29.7703L9.73677 28.4642L9.88148 27.6375L9.99726 26.8633L11.1912 17.3119C11.2724 16.6717 11.5234 16.0649 11.9182 15.5544C12.3129 15.0439 12.837 14.6483 13.4361 14.4085L24.1326 10.1303C24.79 9.86738 25.5102 9.80317 26.2037 9.94562C26.8973 10.0881 27.5339 10.4291 28.0345 10.9299ZM21.3232 21.0691C20.8662 21.5265 20.5401 22.0979 20.3788 22.724C20.2175 23.3501 20.2269 24.008 20.4061 24.6292C20.2742 24.7064 20.1526 24.8 20.0443 24.9078L12.7035 32.2486C12.6554 32.2974 12.6221 32.3589 12.6076 32.4258L12.4466 33.1223L12.1246 34.4664L11.969 35.1013C11.9531 35.1624 11.9534 35.2265 11.97 35.2874C11.9865 35.3483 12.0187 35.4038 12.0633 35.4484C12.1079 35.4931 12.1634 35.5252 12.2243 35.5418C12.2852 35.5583 12.3494 35.5586 12.4104 35.5427L13.7075 35.2261L15.0877 34.9041C15.1542 34.8888 15.2151 34.8549 15.2632 34.8065L22.604 27.4657C22.7116 27.3579 22.8052 27.2369 22.8826 27.1057C23.4955 27.2819 24.1442 27.2929 24.7628 27.1377C25.3814 26.9824 25.948 26.6664 26.4051 26.2217C26.8622 25.7769 27.1937 25.2192 27.3658 24.6051C27.538 23.991 27.5447 23.3422 27.3854 22.7247C27.226 22.1071 26.9063 21.5426 26.4585 21.0885C26.0107 20.6343 25.4508 20.3066 24.8355 20.1385C24.2203 19.9704 23.5716 19.968 22.9551 20.1314C22.3386 20.2948 21.7762 20.6183 21.325 21.0691H21.3232ZM29.7494 7.5308C30.0607 7.21907 30.475 7.03163 30.9146 7.00365C31.3542 6.97568 31.789 7.10908 32.1372 7.37884L32.3073 7.5308L39.9827 15.2044C40.3106 15.5292 40.502 15.9671 40.5176 16.4283C40.5333 16.8896 40.372 17.3393 40.0669 17.6856C39.7618 18.0319 39.3359 18.2484 38.8763 18.2909C38.4168 18.3334 37.9584 18.1987 37.5949 17.9143L37.4231 17.7623L29.7494 10.0887C29.4103 9.74945 29.2198 9.28941 29.2198 8.80974C29.2198 8.33006 29.4103 7.87003 29.7494 7.5308Z" />
</svg>