<svg width="48" height="48" viewBox="0 0 48 48" xmlns="http://www.w3.org/2000/svg">
<path d="M34.0001 27C35.1936 27 36.3382 27.4741 37.1821 28.318C38.026 29.1619 38.5001 30.3065 38.5001 31.5V32.5725C38.5001 37.938 32.1851 42 23.5001 42C14.8151 42 8.50009 38.1495 8.50009 32.5725V31.5C8.50009 30.3065 8.9742 29.1619 9.81811 28.318C10.662 27.4741 11.8066 27 13.0001 27H34.0001ZM23.5001 5.99998C24.682 5.99998 25.8523 6.23278 26.9442 6.68507C28.0362 7.13736 29.0283 7.8003 29.8641 8.63602C30.6998 9.47175 31.3627 10.4639 31.815 11.5558C32.2673 12.6478 32.5001 13.8181 32.5001 15C32.5001 16.1819 32.2673 17.3522 31.815 18.4441C31.3627 19.5361 30.6998 20.5282 29.8641 21.3639C29.0283 22.1997 28.0362 22.8626 26.9442 23.3149C25.8523 23.7672 24.682 24 23.5001 24C21.1131 24 18.824 23.0518 17.1361 21.3639C15.4483 19.6761 14.5001 17.3869 14.5001 15C14.5001 12.613 15.4483 10.3239 17.1361 8.63602C18.824 6.9482 21.1131 5.99998 23.5001 5.99998Z"/>
</svg>
