<svg width="48" height="48" viewBox="0 0 48 48" xmlns="http://www.w3.org/2000/svg">
  <path
    d="M16.7684 40.8778C15.8181 40.8778 15.0053 40.5395 14.33 39.8628C13.6548 39.186 13.3164 38.3747 13.315 37.4287V32.3298H9.45126C8.50243 32.3298 7.69037 31.9915 7.01508 31.3147C6.33978 30.638 6.00142 29.826 6 28.8785V20.822C6 19.6111 6.41102 18.5967 7.23305 17.7789C8.05509 16.9583 9.06874 16.548 10.274 16.548H37.726C38.937 16.548 39.952 16.9583 40.7712 17.7789C41.5904 18.5995 42 19.6139 42 20.822V28.8785C42 29.8274 41.6624 30.6394 40.9871 31.3147C40.3118 31.99 39.499 32.3284 38.5487 32.3298H34.685V37.4266C34.685 38.3754 34.3467 39.1875 33.67 39.8628C32.9932 40.5381 32.1812 40.8764 31.2338 40.8778H16.7684ZM34.685 14.9047H13.315V11.4449C13.315 10.4946 13.6533 9.68254 14.33 9.00867C15.0053 8.33622 15.8174 8 16.7662 8H31.2338C32.1826 8 32.9947 8.33836 33.67 9.01508C34.3467 9.6918 34.685 10.5039 34.685 11.4513V14.9047ZM36.0014 24.0297C36.6069 24.0297 37.1141 23.8245 37.523 23.4142C37.9319 23.0039 38.137 22.4967 38.1384 21.8927C38.1399 21.2886 37.9347 20.7807 37.523 20.369C37.1112 19.9573 36.6041 19.7521 36.0014 19.7535C35.3988 19.755 34.8909 19.9601 34.4777 20.369C34.0646 20.7779 33.8601 21.2858 33.8644 21.8927C33.8687 22.4996 34.0731 23.0068 34.4777 23.4142C34.8823 23.8217 35.3902 24.0268 36.0014 24.0297ZM16.7684 38.7408H31.2338C31.617 38.7408 31.9319 38.6176 32.1783 38.3711C32.4248 38.1247 32.548 37.8098 32.548 37.4266V30.3574C32.548 29.9727 32.4248 29.6578 32.1783 29.4128C31.9319 29.1663 31.617 29.0431 31.2338 29.0431H16.7662C16.383 29.0431 16.0681 29.1656 15.8217 29.4107C15.5752 29.6586 15.452 29.9741 15.452 30.3574V37.4266C15.452 37.8098 15.5752 38.1247 15.8217 38.3711C16.0681 38.6176 16.3837 38.7408 16.7684 38.7408Z" />
</svg>