<svg width="48" height="48" viewBox="0 0 48 48" xmlns="http://www.w3.org/2000/svg">
  <path
    d="M22.42 43C20.9085 42.8488 19.4574 42.4788 18.0668 41.8899C16.6762 41.301 15.3461 40.5223 14.0764 39.5537L16.6158 36.9236C17.4924 37.5585 18.4223 38.0724 19.4054 38.4654C20.3885 38.8584 21.3934 39.1305 22.42 39.2816V43ZM26.0477 43V39.2816C29.1917 38.8282 31.7916 37.4152 33.8473 35.0427C35.9029 32.6702 36.9308 29.9113 36.9308 26.7661C36.9308 23.2291 35.6992 20.229 33.236 17.7658C30.7728 15.3026 27.7721 14.0704 24.2339 14.0692H23.8711L26.7733 16.9714L24.2339 19.5107L16.9785 12.2554L24.2339 5L26.7733 7.63007L23.9618 10.4415H24.2339C26.5012 10.4415 28.6252 10.8726 30.6059 11.7348C32.5866 12.597 34.3098 13.7609 35.7754 15.2264C37.241 16.692 38.4048 18.4152 39.267 20.3959C40.1292 22.3766 40.5597 24.5 40.5585 26.7661C40.5585 30.9077 39.183 34.513 36.432 37.5821C33.681 40.6511 30.2196 42.4571 26.0477 43ZM11.4463 36.9236C10.4789 35.6539 9.70017 34.3238 9.11007 32.9332C8.51997 31.5426 8.14994 30.0915 8 28.58H11.7184C11.8695 29.6078 12.1416 30.6133 12.5346 31.5964C12.9276 32.5795 13.4415 33.5088 14.0764 34.3842L11.4463 36.9236ZM8 24.9523C8.18138 23.4105 8.55927 21.9292 9.13365 20.5084C9.70803 19.0875 10.4789 17.7876 11.4463 16.6086L14.0764 19.148C13.4415 20.0247 12.9276 20.9546 12.5346 21.9377C12.1416 22.9208 11.8695 23.9256 11.7184 24.9523H8Z" />
</svg>