<svg width="48" height="48" viewBox="0 0 48 48" xmlns="http://www.w3.org/2000/svg">
<path d="M31.4849 28.6835C33.4214 26.041 34.2888 22.7647 33.9134 19.5102C33.5381 16.2556 31.9477 13.2628 29.4605 11.1304C26.9733 8.9981 23.7727 7.88351 20.499 8.00965C17.2253 8.13579 14.1199 9.49336 11.8042 11.8108C9.48844 14.1282 8.13309 17.2345 8.00929 20.5083C7.88549 23.7821 9.00238 26.9819 11.1365 29.4676C13.2706 31.9533 16.2646 33.5415 19.5194 33.9145C22.7742 34.2875 26.0499 33.4178 28.691 31.4794H28.689C28.749 31.5594 28.813 31.6354 28.885 31.7094L36.5847 39.4091C36.9597 39.7844 37.4684 39.9953 37.999 39.9955C38.5295 39.9957 39.0383 39.7851 39.4136 39.4101C39.7889 39.0351 39.9998 38.5264 40 37.9959C40.0002 37.4654 39.7896 36.9565 39.4146 36.5812L31.7149 28.8815C31.6434 28.8091 31.5665 28.7423 31.4849 28.6815V28.6835ZM32.0009 20.9958C32.0009 22.4403 31.7164 23.8706 31.1636 25.2052C30.6108 26.5397 29.8006 27.7523 28.7792 28.7737C27.7578 29.7951 26.5452 30.6053 25.2107 31.1581C23.8761 31.7109 22.4458 31.9954 21.0013 31.9954C19.5568 31.9954 18.1265 31.7109 16.7919 31.1581C15.4574 30.6053 14.2448 29.7951 13.2234 28.7737C12.202 27.7523 11.3918 26.5397 10.839 25.2052C10.2862 23.8706 10.0017 22.4403 10.0017 20.9958C10.0017 18.0785 11.1606 15.2807 13.2234 13.2179C15.2862 11.1551 18.084 9.99622 21.0013 9.99622C23.9186 9.99622 26.7164 11.1551 28.7792 13.2179C30.842 15.2807 32.0009 18.0785 32.0009 20.9958Z"/>
</svg>
