<svg width="48" height="48" viewBox="0 0 48 48" xmlns="http://www.w3.org/2000/svg">
  <path
    d="M12.4853 8.18604C11.1274 7.50714 9.62219 8.79866 10.0862 10.2445L13.3528 20.3972C13.417 20.5968 13.5349 20.7749 13.6935 20.912C13.8522 21.049 14.0455 21.1398 14.2522 21.1744L27.8178 23.4363C28.4544 23.5426 28.4544 24.457 27.8178 24.5632L14.2534 26.824C14.0464 26.8584 13.8528 26.9491 13.694 27.0862C13.5351 27.2233 13.4171 27.4014 13.3528 27.6012L10.0862 37.7574C9.62105 39.2032 11.1263 40.4947 12.4853 39.8158L41.0519 25.5347C42.316 24.9027 42.316 23.1003 41.0519 22.4671L12.4853 8.18604Z" />
</svg>