<svg width="48" height="48" viewBox="0 0 48 48"  xmlns="http://www.w3.org/2000/svg">
<path d="M18.6675 27.6638C19.8499 27.6635 20.9989 28.0562 21.9338 28.7802C22.8687 29.5041 23.5364 30.5183 23.832 31.6632H38.6644C38.9976 31.6626 39.3188 31.7867 39.565 32.0112C39.8112 32.2356 39.9644 32.5441 39.9945 32.8759C40.0246 33.2076 39.9294 33.5387 39.7277 33.8037C39.5259 34.0688 39.2322 34.2488 38.9044 34.3081L38.6644 34.3294L23.832 34.3321C23.5374 35.478 22.8701 36.4933 21.9351 37.2183C21.0001 37.9433 19.8506 38.3368 18.6675 38.3368C17.4844 38.3368 16.3348 37.9433 15.3999 37.2183C14.4649 36.4933 13.7976 35.478 13.5029 34.3321L9.33559 34.3294C9.00245 34.3301 8.68115 34.2059 8.43497 33.9815C8.18879 33.757 8.03556 33.4485 8.00546 33.1168C7.97536 32.785 8.07056 32.454 8.27233 32.1889C8.47411 31.9238 8.76781 31.7439 9.09562 31.6845L9.33559 31.6632H13.5029C13.7986 30.5183 14.4663 29.5041 15.4012 28.7802C16.3361 28.0562 17.4851 27.6635 18.6675 27.6638ZM18.6675 30.3301C17.9604 30.3301 17.2822 30.611 16.7822 31.111C16.2821 31.611 16.0012 32.2892 16.0012 32.9963C16.0012 33.7034 16.2821 34.3816 16.7822 34.8816C17.2822 35.3817 17.9604 35.6626 18.6675 35.6626C19.3746 35.6626 20.0528 35.3817 20.5528 34.8816C21.0528 34.3816 21.3337 33.7034 21.3337 32.9963C21.3337 32.2892 21.0528 31.611 20.5528 31.111C20.0528 30.611 19.3746 30.3301 18.6675 30.3301ZM29.3325 9C30.5149 8.9997 31.6639 9.39241 32.5988 10.1164C33.5337 10.8403 34.2014 11.8545 34.4971 12.9994H38.6644C38.9976 12.9988 39.3188 13.1229 39.565 13.3474C39.8112 13.5718 39.9644 13.8803 39.9945 14.2121C40.0246 14.5438 39.9294 14.8749 39.7277 15.1399C39.5259 15.405 39.2322 15.585 38.9044 15.6443L38.6644 15.6656L34.4971 15.6683C34.2024 16.8142 33.5351 17.8295 32.6001 18.5545C31.6652 19.2795 30.5156 19.673 29.3325 19.673C28.1494 19.673 26.9999 19.2795 26.0649 18.5545C25.1299 17.8295 24.4626 16.8142 24.168 15.6683L9.33559 15.6656C9.00245 15.6663 8.68115 15.5421 8.43497 15.3177C8.18879 15.0932 8.03556 14.7847 8.00546 14.453C7.97536 14.1212 8.07056 13.7902 8.27233 13.5251C8.47411 13.26 8.76781 13.0801 9.09562 13.0207L9.33559 12.9994H24.168C24.4636 11.8545 25.1313 10.8403 26.0662 10.1164C27.0011 9.39241 28.1501 8.9997 29.3325 9ZM29.3325 11.6663C28.6254 11.6663 27.9472 11.9472 27.4472 12.4472C26.9472 12.9472 26.6663 13.6254 26.6663 14.3325C26.6663 15.0396 26.9472 15.7178 27.4472 16.2178C27.9472 16.7179 28.6254 16.9988 29.3325 16.9988C30.0396 16.9988 30.7178 16.7179 31.2178 16.2178C31.7179 15.7178 31.9988 15.0396 31.9988 14.3325C31.9988 13.6254 31.7179 12.9472 31.2178 12.4472C30.7178 11.9472 30.0396 11.6663 29.3325 11.6663Z" />
</svg>
