<svg width="48" height="48" viewBox="0 0 48 48" xmlns="http://www.w3.org/2000/svg">
  <path
    d="M42.3717 30.904H13.2928C13.7529 29.9978 14.2146 29.0656 14.6764 28.1179C17.2705 28.4032 20.3109 26.5994 23.7836 22.7324C24.6483 25.0602 26.2827 28.0815 29.0723 28.1369C30.6391 28.168 32.2043 27.2376 33.8144 25.3058C34.9887 26.7101 37.4082 28.1369 42.3717 28.1369C42.7386 28.1369 43.0905 27.9911 43.35 27.7317C43.6095 27.4722 43.7552 27.1203 43.7552 26.7533C43.7552 26.3864 43.6095 26.0345 43.35 25.775C43.0905 25.5155 42.7386 25.3698 42.3717 25.3698C37.109 25.3698 35.5525 23.5625 35.4539 22.5836C35.4695 22.2867 35.3849 21.9932 35.2136 21.7501C35.0424 21.5071 34.7945 21.3286 34.5096 21.2433C34.2137 21.1544 33.8967 21.1653 33.6076 21.2744C33.3185 21.3835 33.0734 21.5847 32.9099 21.8469C30.8225 25.0533 29.5582 25.3802 29.119 25.3698C27.6904 25.3421 26.2377 21.9939 25.7396 19.59C25.6865 19.3325 25.5611 19.0955 25.3781 18.9067C25.1951 18.718 24.9622 18.5852 24.7065 18.5241C24.4508 18.4629 24.183 18.4759 23.9344 18.5614C23.6858 18.647 23.4667 18.8016 23.3028 19.0071C19.8094 23.3896 17.4677 24.8648 16.0098 25.247C17.4781 21.9835 18.5745 19.1178 19.2767 16.7053C20.4562 12.6514 20.5426 9.81688 19.5378 8.04074C19.019 7.1103 17.9225 6 15.7227 6C12.9452 6 10.754 8.6253 9.70941 13.2031C9.08854 15.9201 8.9865 18.9466 9.42924 21.5045C9.87198 24.0623 10.7903 25.9232 12.1254 27.0283C11.4804 28.3634 10.8232 29.6674 10.1833 30.904H6.39926C6.03231 30.904 5.6804 31.0498 5.42093 31.3092C5.16147 31.5687 5.0157 31.9206 5.0157 32.2876C5.0157 32.6545 5.16147 33.0064 5.42093 33.2659C5.6804 33.5253 6.03231 33.6711 6.39926 33.6711H8.71844C6.76071 37.3029 5.2388 39.8348 5.21459 39.8764C5.11595 40.0321 5.04945 40.2061 5.019 40.388C4.98854 40.5698 4.99475 40.7559 5.03726 40.9354C5.07977 41.1148 5.15771 41.2839 5.26651 41.4328C5.37532 41.5817 5.51278 41.7073 5.67083 41.8023C5.82888 41.8973 6.00432 41.9597 6.18685 41.9859C6.36937 42.0122 6.55529 42.0016 6.73369 41.955C6.91208 41.9083 7.07935 41.8264 7.22566 41.7142C7.37197 41.602 7.49436 41.4616 7.58565 41.3014C7.6116 41.2564 9.53474 38.0518 11.8574 33.6711H42.3717C42.7386 33.6711 43.0905 33.5253 43.35 33.2659C43.6095 33.0064 43.7552 32.6545 43.7552 32.2876C43.7552 31.9206 43.6095 31.5687 43.35 31.3092C43.0905 31.0498 42.7386 30.904 42.3717 30.904ZM12.4073 13.8188C13.0957 10.7975 14.4291 8.76711 15.7227 8.76711C16.6445 8.76711 16.9506 9.08879 17.1287 9.40182C17.6476 10.3236 18.2563 13.5853 13.3828 24.3425C11.9542 22.3917 11.4683 17.9332 12.4073 13.8188Z" />
</svg>