<svg width="48" height="48" viewBox="0 0 48 48" xmlns="http://www.w3.org/2000/svg">
<path d="M27.7167 10.1387C28.4859 10.1388 29.1095 10.7627 29.1098 11.5317V33.2441L35.0902 27.2637C35.6342 26.72 36.5162 26.72 37.0601 27.2637C37.6038 27.8076 37.6038 28.6896 37.0601 29.2336L28.7017 37.592C28.3033 37.9903 27.7039 38.1095 27.1835 37.894C26.6632 37.6784 26.3238 37.1702 26.3237 36.6071V11.5317C26.324 10.7626 26.9475 10.1387 27.7167 10.1387Z" />
<path d="M19.7664 10.408C20.3104 9.86399 21.1923 9.86399 21.7363 10.408C22.0165 10.6883 22.1503 11.0584 22.1417 11.4256C22.1421 11.4377 22.1444 11.4502 22.1444 11.4624V36.5377C22.1442 37.3068 21.5205 37.9307 20.7514 37.9308C19.9821 37.9308 19.3585 37.3069 19.3583 36.5377V14.7559L13.3779 20.7364C12.8339 21.2802 11.952 21.2801 11.408 20.7364C10.864 20.1924 10.864 19.3105 11.408 18.7665L19.7664 10.408Z" />
</svg>
