<svg width="48" height="48" viewBox="0 0 48 48" xmlns="http://www.w3.org/2000/svg">
<path d="M19.4285 8C20.9441 8 22.3971 8.60247 23.4687 9.67411C24.5404 10.7457 25.1429 12.1988 25.1429 13.7143V34.2857C25.1429 35.195 25.5043 36.0668 26.1473 36.7098C26.7903 37.3528 27.6621 37.7143 28.5715 37.7143C29.4808 37.7143 30.3526 37.3528 30.9956 36.7098C31.6386 36.0668 32 35.195 32 34.2857V9.14286C32 8.68067 32.2784 8.26398 32.7054 8.08705C33.1325 7.91016 33.6241 8.00797 33.9509 8.33482L39.6653 14.0491C40.1116 14.4954 40.1116 15.2189 39.6653 15.6652C39.2189 16.1115 38.4955 16.1115 38.0492 15.6652L34.2858 11.9018V34.2857C34.2858 35.8012 33.6833 37.2543 32.6117 38.3259C31.54 39.3975 30.087 40 28.5715 40C27.0559 40 25.6029 39.3975 24.5313 38.3259C23.4596 37.2543 22.8571 35.8012 22.8571 34.2857V13.7143C22.8571 12.805 22.4957 11.9332 21.8527 11.2902C21.2097 10.6472 20.3379 10.2857 19.4285 10.2857C18.5192 10.2857 17.6474 10.6472 17.0044 11.2902C16.3614 11.9332 16 12.805 16 13.7143V38.8571C16 39.3193 15.7216 39.736 15.2946 39.9129C14.8675 40.0898 14.3759 39.992 14.0491 39.6652L8.33474 33.9509C7.88842 33.5046 7.88842 32.7811 8.33474 32.3348C8.78105 31.8885 9.5045 31.8885 9.95082 32.3348L13.7142 36.0982V13.7143C13.7142 12.1988 14.3167 10.7457 15.3883 9.67411C16.46 8.60247 17.913 8 19.4285 8Z"/>
</svg>
