<svg width="48" height="48" viewBox="0 0 48 48" xmlns="http://www.w3.org/2000/svg">
<path d="M5.06003 39.3L7.74003 40.42V22.36L2.88003 34.08C2.06003 36.12 3.00003 38.46 5.06003 39.3ZM44.06 31.9L34.14 8C33.847 7.27509 33.348 6.65196 32.7046 6.20764C32.0612 5.76332 31.3017 5.5173 30.52 5.5C30 5.5 29.46 5.58 28.94 5.8L14.2 11.9C13.4886 12.2019 12.8787 12.7015 12.4427 13.3396C12.0066 13.9777 11.7628 14.7275 11.74 15.5C11.72 16 11.82 16.58 12 17.1L22 41C22.58 42.56 24.06 43.48 25.62 43.5C26.14 43.5 26.66 43.4 27.16 43.2L41.88 37.1C42.8585 36.6993 43.6378 35.9264 44.0466 34.9513C44.4554 33.9762 44.4602 32.8787 44.06 31.9ZM15.76 17.5C15.2296 17.5 14.7209 17.2893 14.3458 16.9142C13.9707 16.5391 13.76 16.0304 13.76 15.5C13.76 14.9696 13.9707 14.4609 14.3458 14.0858C14.7209 13.7107 15.2296 13.5 15.76 13.5C16.86 13.5 17.76 14.4 17.76 15.5C17.76 16.6 16.86 17.5 15.76 17.5ZM11.76 39.5C11.76 40.5609 12.1815 41.5783 12.9316 42.3284C13.6817 43.0786 14.6992 43.5 15.76 43.5H18.66L11.76 26.82V39.5Z"/>
</svg>
