<svg width="48" height="48" viewBox="0 0 48 48" xmlns="http://www.w3.org/2000/svg">
<path d="M23.5032 6C24.9818 6 26.4143 6.19474 27.7775 6.55946L24.2689 10.0664C24.0027 10.3336 23.768 10.6304 23.5692 10.9509H23.5032C21.2184 10.9509 18.9848 11.6285 17.0851 12.8978C15.1853 14.1672 13.7047 15.9714 12.8303 18.0823C11.9559 20.1932 11.7272 22.516 12.1729 24.7569C12.6187 26.9978 13.7189 29.0562 15.3345 30.6718C16.9501 32.2874 19.0085 33.3877 21.2494 33.8334C23.4904 34.2792 25.8131 34.0504 27.924 33.176C30.0349 32.3017 31.8391 30.821 33.1085 28.9212C34.3779 27.0215 35.0554 24.788 35.0554 22.5032V22.4372C35.3744 22.2391 35.6687 22.0053 35.9383 21.7358L39.4469 18.2288C39.8116 19.592 40.0063 21.0245 40.0063 22.5032C40.0063 31.6179 32.6179 39.0063 23.5032 39.0063C14.3885 39.0063 7 31.6179 7 22.5032C7 13.3885 14.3885 6 23.5032 6ZM22.8199 14.2796C22.8199 15.6841 22.7506 17.1083 22.8265 18.5111L21.9354 19.4022C21.6288 19.7088 21.3856 20.0727 21.2197 20.4732C21.0538 20.8738 20.9684 21.3031 20.9684 21.7366C20.9684 22.1701 21.0538 22.5994 21.2197 22.9999C21.3856 23.4005 21.6288 23.7644 21.9354 24.071C22.2419 24.3775 22.6059 24.6207 23.0064 24.7866C23.4069 24.9525 23.8362 25.0379 24.2697 25.0379C24.7033 25.0379 25.1326 24.9525 25.5331 24.7866C25.9336 24.6207 26.2976 24.3775 26.6041 24.071L27.4953 23.1798C28.898 23.2557 30.3206 23.1864 31.7267 23.1864C31.5963 24.7548 31.0202 26.2531 30.0662 27.5048C29.1122 28.7565 27.8202 29.7092 26.3425 30.2507C24.8648 30.7921 23.2631 30.8997 21.7262 30.5608C20.1894 30.2218 18.7815 29.4504 17.6687 28.3376C16.5559 27.2248 15.7845 25.8169 15.4456 24.2801C15.1066 22.7433 15.2142 21.1415 15.7557 19.6639C16.2971 18.1862 17.2499 16.8941 18.5015 15.9401C19.7532 14.9862 21.2516 14.41 22.8199 14.2796ZM34.2368 6.20959C34.5381 6.33448 34.7955 6.54582 34.9768 6.81692C35.158 7.08802 35.2548 7.40674 35.2551 7.73283V10.7529H38.2735C38.5998 10.753 38.9189 10.8498 39.1902 11.0312C39.4615 11.2125 39.673 11.4702 39.7979 11.7717C39.9227 12.0732 39.9554 12.405 39.8918 12.7251C39.8281 13.0452 39.671 13.3392 39.4403 13.57L33.6031 19.4006C33.2937 19.7101 32.874 19.884 32.4363 19.8841H28.4541L25.4373 22.9025C25.1277 23.2122 24.7077 23.3862 24.2697 23.3862C23.8318 23.3862 23.4118 23.2122 23.1021 22.9025C22.7925 22.5929 22.6185 22.1729 22.6185 21.7349C22.6185 21.297 22.7925 20.877 23.1021 20.5673L26.1206 17.5522V13.5684C26.1204 13.3514 26.163 13.1365 26.246 12.936C26.329 12.7355 26.4507 12.5533 26.6041 12.3999L32.438 6.56606C32.6688 6.33513 32.9629 6.17784 33.2831 6.11409C33.6033 6.05034 33.9352 6.083 34.2368 6.20794"/>
</svg>
