<svg width="48" height="48" viewBox="0 0 48 48" xmlns="http://www.w3.org/2000/svg">
  <path
    d="M40.1545 20.586C39.1154 19.8156 37.8388 19.25 36.491 18.945C36.2697 18.8952 36.0671 18.7835 35.9069 18.6229C35.7467 18.4623 35.6355 18.2595 35.5863 18.038C35.0074 15.4589 33.7612 13.2472 31.9295 11.5714C29.8002 9.62014 26.9843 8.54694 24 8.54694C21.3764 8.54694 18.9531 9.36928 16.996 10.9256C15.6696 11.9822 14.6019 13.3275 13.8743 14.8592C13.7955 15.0268 13.6785 15.1737 13.5327 15.288C13.387 15.4023 13.2165 15.4809 13.0349 15.5176C11.0496 15.9183 9.25719 16.7696 7.88859 17.9757C5.99898 19.6456 5 21.8655 5 24.4001C5 26.9621 6.07543 29.2985 8.02738 30.9877C9.89176 32.5975 12.4018 33.4844 15.0938 33.4844H22.8125V22.1015L20.0894 24.8246C19.9757 24.9383 19.8401 25.0277 19.6909 25.0874C19.5416 25.1471 19.3818 25.1759 19.2211 25.172C19.0603 25.1681 18.9021 25.1317 18.7559 25.0648C18.6097 24.9979 18.4786 24.9021 18.3705 24.783C17.94 24.3103 17.9816 23.5733 18.4336 23.1213L23.1606 18.395C23.3833 18.1725 23.6852 18.0475 24 18.0475C24.3148 18.0475 24.6167 18.1725 24.8394 18.395L29.5664 23.1198C30.0325 23.5866 30.0592 24.3518 29.5954 24.8201C29.4853 24.9313 29.3544 25.0196 29.2101 25.08C29.0658 25.1404 28.911 25.1717 28.7546 25.1721C28.5982 25.1725 28.4433 25.1421 28.2987 25.0824C28.1541 25.0228 28.0227 24.9352 27.9121 24.8246L25.1875 22.1015V33.4844H34.3906C36.7166 33.4844 38.8371 32.8313 40.3615 31.646C42.0879 30.3027 43 28.3804 43 26.0922C43 23.8701 42.0159 21.9649 40.1545 20.586ZM22.8125 38.2656C22.8125 38.5806 22.9376 38.8826 23.1603 39.1053C23.383 39.328 23.6851 39.4531 24 39.4531C24.3149 39.4531 24.617 39.328 24.8397 39.1053C25.0624 38.8826 25.1875 38.5806 25.1875 38.2656V33.4844H22.8125V38.2656Z" />
</svg>