<svg width="48" height="48" viewBox="0 0 48 48" xmlns="http://www.w3.org/2000/svg">
  <path
    d="M24 2.5C24.2469 2.50002 24.49 2.561 24.7078 2.67753C24.9255 2.79406 25.111 2.96253 25.248 3.168L29.248 9.168C29.3598 9.33183 29.4381 9.51623 29.4782 9.7105C29.5183 9.90478 29.5195 10.1051 29.4816 10.2998C29.4438 10.4945 29.3677 10.6798 29.2578 10.845C29.1478 11.0101 29.0063 11.1518 28.8412 11.2618C28.6761 11.3718 28.4909 11.448 28.2962 11.486C28.1015 11.524 27.9012 11.5229 27.7069 11.483C27.5126 11.443 27.3282 11.3649 27.1642 11.2531C27.0003 11.1414 26.8602 10.9983 26.752 10.832L25.5 8.954V29.984C25.7427 29.86 25.996 29.7533 26.26 29.664L32.79 27.488C33.81 27.148 34.5 26.194 34.5 25.118V21.418C34.0213 21.3347 33.5791 21.108 33.232 20.768C32.8465 20.3682 32.6063 19.8505 32.55 19.298C32.5081 18.8894 32.4914 18.4786 32.5 18.068V17.932C32.5 17.52 32.5 17.078 32.55 16.702C32.61 16.264 32.76 15.702 33.232 15.232C33.704 14.76 34.264 14.61 34.702 14.55C35.078 14.5 35.522 14.5 35.932 14.5H36.07C36.48 14.5 36.922 14.5 37.298 14.55C37.736 14.61 38.298 14.76 38.768 15.232C39.24 15.704 39.39 16.264 39.45 16.702C39.5 17.078 39.5 17.522 39.5 17.932V18.068C39.5 18.48 39.5 18.922 39.45 19.298C39.39 19.736 39.24 20.298 38.768 20.768C38.368 21.168 37.9 21.338 37.5 21.416V25.116C37.5005 26.2706 37.1376 27.3962 36.4628 28.3331C35.7879 29.27 34.8353 29.9707 33.74 30.336L27.21 32.512C26.7121 32.6778 26.279 32.9962 25.972 33.4219C25.6651 33.8477 25.5 34.3592 25.5 34.884V36.29C26.3605 36.6381 27.0732 37.2747 27.5159 38.0906C27.9586 38.9065 28.1037 39.851 27.9263 40.7622C27.749 41.6733 27.2603 42.4945 26.544 43.0849C25.8276 43.6752 24.9283 43.9981 24 43.9981C23.0717 43.9981 22.1724 43.6752 21.456 43.0849C20.7397 42.4945 20.251 41.6733 20.0737 40.7622C19.8963 39.851 20.0415 38.9065 20.4841 38.0906C20.9268 37.2747 21.6395 36.6381 22.5 36.29V28.884C22.5 28.3592 22.3349 27.8477 22.028 27.4219C21.721 26.9962 21.2879 26.6778 20.79 26.512L14.26 24.334C13.165 23.9688 12.2126 23.2684 11.5378 22.3319C10.863 21.3954 10.4999 20.2703 10.5 19.116V15.164C9.78202 14.8234 9.2013 14.2487 8.85335 13.5342C8.5054 12.8198 8.41093 12.0082 8.58548 11.2329C8.76003 10.4577 9.1932 9.76491 9.81376 9.26853C10.4343 8.77215 11.2053 8.50172 12 8.50172C12.7947 8.50172 13.5657 8.77215 14.1862 9.26853C14.8068 9.76491 15.24 10.4577 15.4145 11.2329C15.5891 12.0082 15.4946 12.8198 15.1467 13.5342C14.7987 14.2487 14.218 14.8234 13.5 15.164V19.116C13.5 20.194 14.188 21.148 15.21 21.488L21.74 23.666C22.004 23.754 22.2573 23.86 22.5 23.984V8.954L21.248 10.832C21.1398 10.9983 20.9997 11.1414 20.8358 11.2531C20.6719 11.3649 20.4874 11.443 20.2931 11.483C20.0988 11.5229 19.8985 11.524 19.7038 11.486C19.5091 11.448 19.3239 11.3718 19.1588 11.2618C18.9938 11.1518 18.8522 11.0101 18.7422 10.845C18.6323 10.6798 18.5562 10.4945 18.5184 10.2998C18.4806 10.1051 18.4817 9.90478 18.5218 9.7105C18.5619 9.51623 18.6402 9.33183 18.752 9.168L22.752 3.168C22.889 2.96253 23.0745 2.79406 23.2923 2.67753C23.51 2.561 23.7531 2.50002 24 2.5Z" />
</svg>