<svg width="48" height="48" viewBox="0 0 48 48" xmlns="http://www.w3.org/2000/svg">
<path fill-rule="evenodd" clip-rule="evenodd" d="M38.5 37.1C38.5 38.7626 37.1569 40.1104 35.5 40.1104H11C9.34315 40.1104 8 38.7626 8 37.1V20.0411C8 18.3786 9.34315 17.0308 11 17.0308H13.0683L13.042 16.9853L27.6006 8.5168C29.034 7.68299 30.8697 8.1731 31.7006 9.61149L35.9981 17.0507L35.9693 17.0674C37.4033 17.2935 38.5 18.5388 38.5 20.0411V22.6241H32.7262C29.5195 22.6241 26.9199 25.2326 26.9199 28.4505C26.9199 31.6683 29.5195 34.2768 32.7262 34.2768H38.5V37.1ZM34.0847 16.5398L33.2408 17.0308H27.3782L32.6077 13.9888L32.6061 13.986L32.6086 13.9845L34.0847 16.5398ZM18.6607 17.0308L30.4122 10.1951C29.9401 9.52248 29.0255 9.31175 28.3027 9.7322L15.7555 17.0308H18.6607Z"/>
<path fill-rule="evenodd" clip-rule="evenodd" d="M40 26.0619V30.8127C40 31.9211 39.1046 32.8196 38 32.8196H32.3749C30.1658 32.8196 28.3749 31.0225 28.3749 28.8058V28.0688C28.3749 25.852 30.1658 24.055 32.3749 24.055H38C39.1046 24.055 40 24.9535 40 26.0619ZM34.1875 28.397C34.1875 29.2061 33.5339 29.862 32.7276 29.862C31.9213 29.862 31.2677 29.2061 31.2677 28.397C31.2677 27.588 31.9213 26.9321 32.7276 26.9321C33.5339 26.9321 34.1875 27.588 34.1875 28.397Z"/>
</svg>
