<svg width="48" height="48" viewBox="0 0 48 48" xmlns="http://www.w3.org/2000/svg">
  <path
    d="M24.9365 7.10156C24.6838 6.86195 24.3491 6.72809 24.0008 6.72742C23.6526 6.72674 23.3173 6.8593 23.0637 7.09792L19.0164 10.9053C18.7501 11.1333 18.4062 11.25 18.0562 11.2311C17.7062 11.2123 17.3768 11.0594 17.1365 10.8041C16.8963 10.5489 16.7635 10.2109 16.7658 9.86035C16.7682 9.50981 16.9054 9.17363 17.1491 8.9216L21.1928 5.11242C21.9534 4.39632 22.9591 3.99831 24.0038 4.00001C25.0484 4.0017 26.0528 4.40295 26.8111 5.12151L30.8239 8.92342C31.0865 9.17224 31.2395 9.51518 31.2492 9.8768C31.2589 10.2384 31.1246 10.5891 30.8757 10.8516C30.6269 11.1142 30.284 11.2672 29.9224 11.2769C29.5607 11.2866 29.2101 11.1523 28.9475 10.9035L24.9365 7.10156ZM10.8471 17.0909C11.1101 17.339 11.2638 17.6814 11.2743 18.0429C11.2849 18.4043 11.1515 18.7551 10.9035 19.0182L7.09974 23.0619C6.86087 23.3153 6.72799 23.6505 6.72833 23.9987C6.72867 24.3469 6.8622 24.6818 7.10156 24.9347L10.9053 28.9475C11.1541 29.2101 11.2884 29.5607 11.2787 29.9224C11.269 30.284 11.116 30.6269 10.8535 30.8757C10.5909 31.1246 10.2402 31.2589 9.87861 31.2492C9.517 31.2395 9.17406 31.0865 8.92523 30.8239L5.12151 26.8129C4.40295 26.0546 4.0017 25.0502 4.00001 24.0056C3.99831 22.9609 4.39632 21.9552 5.11242 21.1946L8.91978 17.1509C9.16767 16.8876 9.50997 16.7336 9.87139 16.7227C10.2328 16.7118 10.5838 16.8449 10.8471 17.0927M37.1313 17.1145C37.3937 16.8658 37.7441 16.7314 38.1055 16.741C38.4669 16.7505 38.8098 16.9032 39.0587 17.1654L42.8751 21.1892C43.5961 21.9492 43.9981 22.957 43.9981 24.0047C43.9981 25.0523 43.5961 26.0601 42.8751 26.8202L39.0587 30.8439C38.8076 31.0965 38.4677 31.2408 38.1116 31.2461C37.7555 31.2513 37.4114 31.117 37.153 30.8719C36.8946 30.6269 36.7424 30.2904 36.7288 29.9345C36.7153 29.5786 36.8414 29.2316 37.0804 28.9675L40.8951 24.9438C41.1358 24.6904 41.27 24.3542 41.27 24.0047C41.27 23.6552 41.1358 23.319 40.8951 23.0656L37.0822 19.04C36.8335 18.7776 36.6991 18.4272 36.7087 18.0658C36.7182 17.7044 36.8709 17.3616 37.1332 17.1127M30.8894 37.1368C31.1381 37.3992 31.2725 37.7496 31.2629 38.111C31.2534 38.4724 31.1007 38.8152 30.8385 39.0641L26.8166 42.8787C26.0566 43.5987 25.0497 44 24.0029 44C22.956 44 21.9491 43.5987 21.1892 42.8787L17.16 39.0641C16.9074 38.813 16.763 38.4731 16.7578 38.117C16.7526 37.7609 16.8868 37.4169 17.1319 37.1585C17.377 36.9001 17.7135 36.7478 18.0694 36.7343C18.4252 36.7207 18.7723 36.8469 19.0364 37.0859L23.0637 40.9005C23.3171 41.1407 23.6529 41.2746 24.0019 41.2746C24.351 41.2746 24.6868 41.1407 24.9401 40.9005L28.9621 37.0877C29.2244 36.839 29.5748 36.7046 29.9363 36.7141C30.2977 36.7237 30.6405 36.8746 30.8894 37.1368ZM19.9 14.9036C18.5739 14.9036 17.3021 15.4303 16.3644 16.3681C15.4267 17.3058 14.8999 18.5776 14.8999 19.9037V28.0857C14.8999 29.4118 15.4267 30.6836 16.3644 31.6213C17.3021 32.559 18.5739 33.0858 19.9 33.0858H28.082C29.4081 33.0858 30.6799 32.559 31.6177 31.6213C32.5554 30.6836 33.0822 29.4118 33.0822 28.0857V19.9037C33.0822 18.5776 32.5554 17.3058 31.6177 16.3681C30.6799 15.4303 29.4081 14.9036 28.082 14.9036H19.9Z" />
</svg>