<svg width="128" height="128" viewBox="0 0 128 128" fill="none" xmlns="http://www.w3.org/2000/svg">
<circle cx="64" cy="64" r="48" fill="#0B0B0B"/>
<path d="M64.0002 109.061L62.8372 109.046C38.488 108.429 18.9389 88.498 18.9387 64.0003C18.9387 39.1137 39.1136 18.9388 64.0002 18.9388V109.061Z" fill="#707070"/>
<path fill-rule="evenodd" clip-rule="evenodd" d="M64.3628 18.7471C89.1906 18.942 109.257 39.1262 109.257 64C109.257 88.8738 89.1906 109.057 64.3628 109.252C46.4617 102.026 33.8286 84.4896 33.8286 64C33.8286 43.5102 46.4616 25.9731 64.3628 18.7471Z" fill="white"/>
<circle cx="48.9143" cy="64.3918" r="11.3633" fill="#0B0B0B"/>
<path d="M64 16C90.5097 16 112 37.4903 112 64C112 90.5097 90.5097 112 64 112V16Z" fill="#0B0B0B"/>
<path d="M75.4307 59.9258L78.0303 64.8135H78.0957L80.709 59.9258H82.1123V69H81.0469V61.3555H80.9814L80.2148 62.877L78.0439 66.8291L75.873 62.877L75.1055 61.3555H75.041V69H73.9746V59.9258H75.4307Z" fill="white"/>
<path d="M85.6162 59.9258V63.9297H90.2051V59.9258H91.2979V69H90.2051V64.8916H85.6162V69H84.5244V59.9258H85.6162Z" fill="white"/>
<path fill-rule="evenodd" clip-rule="evenodd" d="M97.4473 59.9258C98.2009 59.9259 98.7903 60.1381 99.2148 60.5625C99.6481 60.9871 99.8652 61.5551 99.8652 62.2656C99.8652 62.6035 99.817 62.8901 99.7217 63.124C99.6264 63.3579 99.5047 63.5531 99.3574 63.709C99.2102 63.8561 99.0501 63.9689 98.877 64.0469C98.7036 64.1162 98.5428 64.1635 98.3955 64.1895V64.2676C98.56 64.2762 98.7423 64.3196 98.9414 64.3975C99.1492 64.4754 99.3445 64.6013 99.5264 64.7744C99.7083 64.939 99.8601 65.1563 99.9814 65.4248C100.111 65.6848 100.177 66.0015 100.177 66.374C100.177 66.7465 100.116 67.0935 99.9951 67.4141C99.8825 67.7346 99.7216 68.0122 99.5137 68.2461C99.3057 68.48 99.0583 68.6661 98.7725 68.8047C98.4866 68.9346 98.1748 69 97.8369 69H93.7158V59.9258H97.4473ZM94.8076 64.7881V68.0381H97.499C97.9669 68.0381 98.3349 67.9205 98.6035 67.6865C98.8721 67.4439 99.0068 67.0931 99.0068 66.6338V66.1914C99.0067 65.7324 98.8721 65.3853 98.6035 65.1514C98.3349 64.909 97.9666 64.7881 97.499 64.7881H94.8076ZM94.8076 60.8877V63.8516H97.3164C97.7497 63.8516 98.0884 63.743 98.3311 63.5264C98.5734 63.3097 98.6943 62.9979 98.6943 62.5908V62.1484C98.6942 61.7415 98.5735 61.4295 98.3311 61.2129C98.0884 60.9963 97.7497 60.8877 97.3164 60.8877H94.8076Z" fill="white"/>
</svg>
